<svg xmlns="http://www.w3.org/2000/svg" xmlns:xlink="http://www.w3.org/1999/xlink" width="250" zoomAndPan="magnify" viewBox="0 0 187.5 187.499992" height="250" preserveAspectRatio="xMidYMid meet" version="1.0"><defs><clipPath id="abd4541d2d"><path d="M 29.621094 2.152344 L 157.527344 2.152344 L 157.527344 182.457031 L 29.621094 182.457031 Z M 29.621094 2.152344 " clip-rule="nonzero"/></clipPath></defs><path fill="#f4f4f4" d="M 82.4375 74.460938 L 79.328125 75.925781 L 73.335938 84.816406 C 73.335938 84.816406 70.574219 95.117188 70.617188 95.546875 C 70.660156 95.980469 66.976562 107.277344 66.976562 107.277344 L 67.515625 121.027344 L 71.730469 124.621094 L 77.429688 123.910156 L 77.117188 121.808594 L 78.019531 118.503906 L 79.644531 115.753906 C 79.644531 115.753906 81.984375 114.332031 82.085938 114.378906 C 82.1875 114.429688 85.390625 114.117188 85.402344 114.15625 C 85.414062 114.195312 88.019531 115.660156 88.019531 115.660156 L 85.007812 118.289062 L 85.070312 120.78125 L 85.917969 122.03125 C 85.917969 122.03125 87.53125 122.6875 87.507812 122.59375 C 87.488281 122.5 89.523438 121.597656 89.523438 121.597656 L 91.175781 119.730469 L 92.40625 117.355469 L 93.28125 118.582031 L 93.746094 121.027344 L 93.746094 123.238281 L 93.117188 125.238281 L 100.234375 124.339844 L 105.464844 123.191406 L 107.308594 122.269531 L 108.78125 121.558594 L 112.378906 120.65625 L 113.300781 116.273438 L 119.761719 93.164062 L 125.515625 81.910156 L 126.515625 77.757812 L 122.3125 76.746094 L 119.0625 73.839844 L 113.070312 74.070312 L 93.265625 74.460938 L 82.4375 74.460938 " fill-opacity="1" fill-rule="nonzero"/><path fill="#f4f4f4" d="M 68.277344 76.859375 L 62.363281 78.683594 L 55.21875 81.910156 L 49.917969 86.523438 L 45.539062 94.132812 L 41.390625 102.667969 L 34.996094 118.582031 L 31.710938 128.957031 L 30.421875 138.75 L 30.421875 147.652344 L 32.191406 154.144531 L 34.214844 157.816406 L 38.433594 153.703125 L 45.347656 149.136719 L 51.289062 144.902344 L 54.738281 143.492188 L 54.328125 138.480469 L 56.324219 132.316406 L 58.230469 129.300781 L 61.640625 122.945312 L 65.359375 109.816406 C 65.359375 109.816406 68.589844 81.449219 68.816406 81.449219 C 69.046875 81.449219 70.667969 79.71875 70.667969 79.71875 L 70.667969 76.859375 L 68.277344 76.859375 " fill-opacity="1" fill-rule="nonzero"/><path fill="#f4f4f4" d="M 122.894531 152.792969 L 123.449219 154.984375 L 122.894531 157.546875 L 122.957031 160.597656 L 122.894531 163.816406 L 121.636719 168.867188 L 120.90625 173.464844 L 124.296875 173.464844 L 132.429688 173.925781 L 140.890625 173.003906 L 147.777344 170.953125 L 151.785156 168.113281 L 154.097656 163.78125 L 155.851562 153.949219 L 156.632812 136.566406 L 155.851562 122.210938 L 154.328125 110.738281 L 152.484375 99.898438 L 149.71875 93.441406 L 144.875 86.523438 L 139.804688 82.832031 L 135.683594 80.5625 L 132.429688 79.605469 L 126.898438 83.0625 L 121.925781 92.925781 L 118.421875 106.996094 L 117.542969 113.949219 L 122.425781 127.042969 L 123.351562 132.035156 L 126.832031 138.480469 L 129.875 141.542969 L 131.507812 136.335938 L 133.582031 129.878906 L 134.273438 134.261719 L 134.621094 140.015625 L 134.050781 143.789062 L 132.535156 147.085938 L 131.011719 149.332031 L 128.464844 151.164062 L 125.480469 152.015625 L 122.894531 152.792969 " fill-opacity="1" fill-rule="nonzero"/><path fill="#facfb5" d="M 120.675781 34.402344 L 118.601562 35.789062 L 115.835938 36.25 L 113.070312 35.789062 L 106.746094 33.394531 L 98.78125 32.558594 L 90.253906 33.480469 L 83.046875 34.402344 L 81.261719 35.050781 L 80.613281 39.015625 L 78.382812 38.476562 L 76.65625 39.40625 L 75.734375 41.554688 L 75.734375 45.585938 L 77.347656 48.933594 L 79.191406 50.316406 L 81.375 51.4375 L 83.046875 57.25 L 86.105469 62.078125 L 88.039062 65.089844 L 87.488281 68.074219 L 86.335938 70.609375 L 83.476562 73.300781 L 83.292969 75.925781 C 83.292969 75.925781 84.722656 86.753906 97.628906 87.675781 C 97.628906 87.675781 113.761719 89.289062 118.832031 73.609375 L 116.839844 69.234375 L 116.066406 64.613281 L 115.605469 60.925781 L 117 57.855469 C 117 57.855469 118.835938 53.527344 119.296875 50.539062 L 120.675781 50.707031 L 123.488281 49.648438 L 124.59375 48.011719 L 125.285156 44.089844 L 125.285156 41.277344 L 124.957031 39.015625 L 122.796875 38.476562 L 120.253906 39.015625 L 120.675781 34.402344 " fill-opacity="1" fill-rule="nonzero"/><path fill="#ffd247" d="M 69.078125 111.257812 L 66.597656 110.554688 L 58.039062 110.554688 L 57.085938 111.394531 L 56.820312 125.308594 L 57.984375 126.652344 L 68.449219 126.652344 L 69.078125 124.824219 L 69.078125 121.027344 L 69.507812 114.890625 L 69.078125 111.257812 " fill-opacity="1" fill-rule="nonzero"/><path fill="#ffd247" d="M 112.679688 127.582031 L 109.382812 127.34375 L 108.886719 125.808594 L 108.945312 123.367188 L 109.222656 122.210938 L 108.667969 121.390625 L 108.921875 116.042969 L 109.382812 112.351562 L 110.03125 111.257812 C 110.03125 111.257812 114.265625 111.316406 114.589844 111.257812 C 114.914062 111.199219 120.261719 111.867188 120.261719 111.867188 L 121.136719 112.582031 L 121.367188 114.890625 L 120.722656 126.925781 L 117.714844 127.582031 L 115.375 124.804688 L 113.53125 123.191406 L 112.679688 127.582031 " fill-opacity="1" fill-rule="nonzero"/><path fill="#6092bb" d="M 79.328125 75.925781 C 79.328125 75.925781 70.28125 94.722656 68.28125 111.03125 L 59.277344 110.554688 C 59.277344 110.554688 62.363281 88.1875 69.507812 76.746094 L 73.855469 75.925781 L 79.328125 75.925781 " fill-opacity="1" fill-rule="nonzero"/><path fill="#6092bb" d="M 134.050781 79.871094 L 130.609375 84.035156 L 126.007812 92.925781 L 122.425781 102.839844 L 119.933594 111.65625 L 111.242188 111.03125 L 112.148438 105.433594 L 115.054688 96.328125 L 119.515625 86.585938 L 122.644531 80.5625 L 124.363281 77.757812 C 124.363281 77.757812 129.664062 78.683594 129.894531 78.683594 C 130.125 78.683594 134.050781 79.871094 134.050781 79.871094 " fill-opacity="1" fill-rule="nonzero"/><path fill="#ff8355" d="M 73.800781 155.96875 C 73.800781 155.96875 69.761719 153.269531 62.257812 154.605469 L 60.273438 153.628906 L 58.101562 150.515625 L 57.199219 147.320312 L 56.714844 144.898438 L 55.75 143.789062 L 54.144531 143.808594 L 51.289062 144.902344 C 51.289062 144.902344 47.152344 147.867188 46.921875 148.097656 C 46.691406 148.328125 39.050781 153.109375 39.050781 153.109375 L 35.167969 156.859375 L 33.683594 159.34375 L 35.398438 162.394531 L 39.109375 165.269531 L 44.617188 168.621094 L 47.550781 170.953125 L 49.917969 174.617188 L 52.683594 179 L 54.914062 181.183594 L 59.96875 181.667969 L 66.28125 179.691406 L 70.617188 176.539062 L 75.105469 172.617188 L 75.792969 171.410156 L 73.992188 168.867188 L 70.984375 164.234375 L 70.984375 160.835938 L 71.574219 158.035156 L 72.820312 156.757812 L 73.800781 155.96875 " fill-opacity="1" fill-rule="nonzero"/><path fill="#ff8355" d="M 103.464844 147.824219 C 103.464844 147.824219 104.628906 151.90625 104.238281 153.230469 C 104.238281 153.230469 107.710938 152.046875 107.742188 152.148438 C 107.769531 152.25 112.199219 152.148438 112.199219 152.148438 L 116.664062 152.148438 L 120.777344 152.015625 C 120.777344 152.015625 122.332031 152.011719 122.425781 152.015625 C 122.519531 152.019531 123.113281 153.230469 123.113281 153.230469 L 123.113281 155.921875 L 122.980469 159.859375 L 122.886719 162.691406 L 122.074219 167.046875 L 120.226562 174.765625 L 117.214844 175.609375 L 112.199219 174.90625 L 108.691406 173.925781 L 103.667969 171.410156 L 100.5 170.359375 L 96.246094 170.007812 L 90.925781 169.757812 L 87.101562 168.65625 L 82.085938 165.269531 L 80.34375 163.085938 L 79.097656 158.652344 L 78.304688 151.789062 L 79.816406 150.3125 L 80.488281 148.402344 L 81.285156 147.152344 L 82.75 147.085938 L 84.097656 146.277344 L 84.769531 145.292969 L 86.605469 144.410156 L 87.8125 144.414062 L 89.769531 143.417969 L 91.425781 142.972656 L 92.980469 143.417969 L 94.585938 144.902344 L 96.207031 148.402344 L 98.5 149.722656 L 100.5 149.542969 L 101.929688 148.71875 L 103.464844 147.824219 " fill-opacity="1" fill-rule="nonzero"/><path fill="#6092bb" d="M 108.636719 126.105469 C 108.691406 126.1875 109.691406 127.363281 109.691406 127.363281 L 112.164062 127.582031 L 111.65625 130.664062 L 107.742188 128.925781 L 108.636719 126.105469 " fill-opacity="1" fill-rule="nonzero"/><path fill="#6092bb" d="M 69.277344 123.652344 L 76.640625 124.523438 L 78.304688 127.367188 L 79.191406 128.988281 L 74.4375 139.03125 L 68.261719 153.628906 L 65.4375 154.144531 L 61.859375 153.949219 L 60.519531 149.710938 L 58.652344 138.75 L 58.230469 126.652344 L 68.085938 126.652344 L 69.078125 125.808594 L 69.277344 123.652344 " fill-opacity="1" fill-rule="nonzero"/><path fill="#6092bb" d="M 122.582031 128.382812 L 124.773438 135.542969 L 127.910156 140.015625 L 129.875 141.949219 L 127.832031 150.808594 L 123.351562 152.761719 L 121.597656 151.785156 L 116.207031 152.148438 L 110.445312 152.015625 L 106.9375 152.148438 L 104.242188 153.453125 L 104.089844 150.515625 L 103.183594 147.601562 L 105.503906 145.796875 L 106.367188 144.414062 L 106.175781 142.875 L 105.457031 141.457031 L 107.308594 140.027344 L 111.226562 139.796875 L 114.660156 138.214844 L 117.046875 135.542969 L 118.570312 132.933594 L 118.765625 131.621094 L 121.554688 129.585938 L 122.582031 128.382812 " fill-opacity="1" fill-rule="nonzero"/><path fill="#6092bb" d="M 105.902344 122.945312 L 101.5 124.128906 L 96.386719 124.984375 L 93.425781 124.984375 L 91.628906 127.582031 L 88.128906 130.65625 L 86.40625 131.582031 L 83.488281 137.527344 L 79.816406 147.320312 L 81.96875 147.121094 L 83.800781 146.945312 L 84.574219 145.359375 C 84.574219 145.359375 85.492188 144.320312 85.796875 144.25 C 86.105469 144.175781 88.089844 142.398438 88.089844 142.398438 L 91.5625 138.363281 L 93.207031 138.765625 L 94.402344 137.027344 L 97.167969 133.339844 L 94.609375 132.480469 L 95.09375 130.339844 L 95.546875 128.449219 L 98.089844 128.496094 C 98.089844 128.496094 98.453125 125.890625 98.5 125.808594 C 98.550781 125.726562 102.628906 127.277344 102.628906 127.277344 L 105.003906 124.574219 L 105.816406 123.109375 L 105.902344 122.945312 " fill-opacity="1" fill-rule="nonzero"/><path fill="#b5b9db" d="M 92.449219 117.214844 C 92.449219 117.214844 90.09375 122.933594 87.636719 122.832031 C 87.636719 122.832031 84.015625 122.171875 84.597656 119.683594 C 84.597656 119.683594 86.121094 116.160156 87.957031 115.871094 C 87.957031 115.871094 83.441406 111.851562 79.816406 115.445312 C 79.816406 115.445312 73.894531 121.253906 79.078125 128.566406 L 77.683594 132.171875 L 68.277344 153.230469 L 71.210938 154.605469 L 74.378906 155.65625 L 77.449219 153.292969 L 78.597656 149.871094 L 80.085938 145.636719 L 86.40625 131.582031 L 89.332031 129.878906 L 92.574219 126.652344 L 93.941406 123.191406 L 93.710938 120.191406 L 93.25 117.65625 L 92.574219 117.035156 L 92.449219 117.214844 " fill-opacity="1" fill-rule="nonzero"/><path fill="#ff707b" d="M 86.0625 143.789062 C 86.335938 143.714844 91.835938 138.480469 91.835938 138.480469 L 96.003906 139.324219 L 98.84375 142.117188 L 99.261719 144.964844 L 96.382812 148.503906 L 93.875 144.242188 L 91.835938 142.960938 L 88.695312 143.613281 L 87.257812 144.636719 L 86.121094 144.414062 L 86.0625 143.789062 " fill-opacity="1" fill-rule="nonzero"/><path fill="#ff707b" d="M 78.171875 152.550781 L 70.984375 159.503906 L 70.984375 163.574219 C 70.984375 163.574219 72.574219 166.714844 72.539062 166.628906 C 72.503906 166.546875 74.769531 169.828125 74.769531 169.828125 L 75.433594 172.035156 L 76.597656 171.410156 L 79.816406 167.902344 L 81.738281 165.269531 L 80.34375 163.085938 L 79.03125 158.066406 L 78.171875 152.550781 " fill-opacity="1" fill-rule="nonzero"/><path fill="#b5b9db" d="M 93.480469 138.179688 L 96.230469 134.804688 L 97.828125 131.867188 L 98.351562 127.859375 L 98.429688 126.175781 L 104.914062 128.382812 L 111.707031 130.347656 L 112.453125 127.859375 L 113.609375 123.5 L 115.375 124.804688 L 118.242188 129.09375 L 118.488281 131.820312 L 117.144531 135.375 L 114.316406 138.480469 L 111.015625 139.808594 L 107.664062 140.070312 L 105.207031 140.070312 L 102.757812 140.917969 L 99.414062 143.273438 L 97.398438 140.257812 L 94.632812 139.105469 L 93.160156 138.480469 L 93.480469 138.179688 " fill-opacity="1" fill-rule="nonzero"/><path fill="#9fa4c1" d="M 102.757812 126.800781 L 108.007812 121.730469 L 109.21875 122.03125 L 107.503906 129.417969 L 103.316406 127.582031 L 102.699219 126.652344 L 102.757812 126.800781 " fill-opacity="1" fill-rule="nonzero"/><path fill="#9fa4c1" d="M 96.914062 133.039062 L 94.710938 132.035156 L 95.546875 128.449219 L 98.320312 128.449219 L 97.621094 132.4375 L 96.914062 133.039062 " fill-opacity="1" fill-rule="nonzero"/><path fill="#4f768c" d="M 105.003906 132.414062 C 105.003906 133.6875 103.972656 134.722656 102.699219 134.722656 C 101.425781 134.722656 100.394531 133.6875 100.394531 132.414062 C 100.394531 131.140625 101.425781 130.109375 102.699219 130.109375 C 103.972656 130.109375 105.003906 131.140625 105.003906 132.414062 " fill-opacity="1" fill-rule="nonzero"/><path fill="#b2b7c3" d="M 118.636719 131.375 L 123.351562 128.382812 L 127.140625 126.925781 L 128.464844 124.003906 L 127.140625 121.730469 L 124.011719 123.140625 L 122.101562 125.777344 L 118.421875 128.964844 L 118.636719 131.375 " fill-opacity="1" fill-rule="nonzero"/><path fill="#b0744f" d="M 103.808594 140.464844 L 105.503906 142.117188 L 106.367188 143.613281 L 105.648438 145.566406 L 102.074219 148.503906 L 99.699219 150.007812 L 97.09375 149.136719 L 96.515625 148.039062 L 98.5 146.035156 L 99.261719 144.722656 L 99.449219 142.972656 L 101.648438 141.542969 L 102.980469 140.839844 L 103.808594 140.464844 " fill-opacity="1" fill-rule="nonzero"/><path fill="#6092bb" d="M 122.796875 30.964844 C 122.796875 30.964844 120.214844 38.324219 113.070312 35.789062 L 108.996094 34.246094 L 103.03125 32.558594 L 94.152344 33.058594 L 87.4375 33.84375 L 82.023438 34.773438 L 79.976562 35.625 C 79.976562 35.625 73.671875 34.390625 79.3125 27.246094 C 79.3125 27.246094 75.273438 12.796875 87.027344 6.765625 L 94.578125 5.214844 L 102.300781 5.214844 L 109.515625 6.109375 L 114.988281 7.972656 L 120.214844 11.34375 L 123.488281 16.019531 L 124.863281 19.667969 L 124.863281 23.984375 L 124.453125 27.890625 L 122.796875 30.964844 " fill-opacity="1" fill-rule="nonzero"/><path fill="#ffd247" d="M 98.320312 4.886719 C 98.320312 4.886719 102.238281 0.0429688 106.15625 5.347656 L 103.535156 5.367188 L 98.320312 4.886719 " fill-opacity="1" fill-rule="nonzero"/><path fill="#330b24" d="M 104.285156 133.5 C 104.25 133.550781 104.214844 133.601562 104.179688 133.652344 C 104.175781 133.652344 104.171875 133.65625 104.167969 133.660156 C 103.292969 134.628906 101.679688 134.484375 101.105469 133.261719 C 100.535156 132.046875 101.476562 130.609375 102.820312 130.65625 C 104.234375 130.703125 105.054688 132.316406 104.285156 133.5 Z M 105.164062 134.382812 C 105.257812 134.273438 105.335938 134.148438 105.40625 134.03125 C 106.011719 132.976562 105.945312 131.601562 105.207031 130.628906 C 104.507812 129.710938 103.296875 129.242188 102.167969 129.476562 C 101.082031 129.703125 100.15625 130.523438 99.828125 131.585938 C 99.480469 132.710938 99.847656 133.980469 100.722656 134.765625 C 101.6875 135.632812 103.082031 135.78125 104.222656 135.171875 C 104.507812 135.019531 104.976562 134.734375 105.164062 134.382812 " fill-opacity="1" fill-rule="nonzero"/><g clip-path="url(#abd4541d2d)"><path fill="#330b24" d="M 155.027344 156.015625 C 154.761719 157.734375 154.433594 159.441406 154.035156 161.132812 C 153.628906 162.867188 153.230469 164.648438 152.304688 166.191406 C 150.882812 168.570312 148.535156 169.925781 146.035156 170.910156 C 140.210938 173.195312 133.753906 173.582031 127.566406 173.277344 C 125.574219 173.179688 123.585938 172.992188 121.609375 172.75 C 121.636719 172.597656 121.664062 172.441406 121.699219 172.292969 C 121.921875 171.25 122.144531 170.203125 122.363281 169.160156 C 122.589844 168.09375 122.816406 167.03125 123.042969 165.96875 C 123.265625 164.925781 123.480469 163.875 123.570312 162.8125 C 123.660156 161.753906 123.515625 160.71875 123.496094 159.664062 C 123.480469 158.769531 123.628906 157.890625 123.761719 157.011719 C 123.902344 156.097656 124.042969 155.15625 123.953125 154.230469 C 123.925781 153.988281 123.886719 153.734375 123.832031 153.480469 C 126.941406 152.960938 129.996094 151.683594 132.105469 149.261719 C 132.320312 149.011719 132.523438 148.753906 132.714844 148.492188 C 134.253906 148.410156 135.789062 148.625 137.28125 148.988281 C 138.070312 149.179688 138.863281 149.398438 139.621094 149.6875 C 139.972656 149.820312 140.382812 149.539062 140.472656 149.203125 C 140.578125 148.816406 140.339844 148.488281 139.992188 148.351562 C 139.207031 148.054688 138.386719 147.828125 137.570312 147.632812 C 136.59375 147.402344 135.589844 147.222656 134.578125 147.140625 C 136.839844 146.308594 139.289062 145.996094 141.683594 146.183594 C 141.839844 146.195312 141.992188 146.210938 142.148438 146.226562 C 142.234375 146.238281 142.238281 146.234375 142.21875 146.234375 C 142.566406 146.265625 142.90625 146.113281 143.007812 145.746094 C 143.097656 145.414062 142.894531 144.953125 142.523438 144.894531 C 140.292969 144.539062 137.894531 144.78125 135.71875 145.339844 C 135.199219 145.472656 134.691406 145.636719 134.1875 145.816406 C 134.765625 144.394531 135.113281 142.875 135.285156 141.332031 C 135.609375 138.421875 135.324219 135.460938 134.789062 132.59375 C 134.582031 131.496094 134.332031 130.402344 134.046875 129.316406 C 134.039062 129.261719 134.027344 129.210938 134.007812 129.164062 C 133.664062 127.875 133.269531 126.597656 132.835938 125.339844 C 132.5625 124.554688 132.273438 123.777344 131.96875 123.007812 C 131.796875 122.582031 131.644531 122.144531 131.4375 121.738281 C 131.429688 121.722656 131.421875 121.703125 131.414062 121.6875 C 131.261719 121.347656 130.765625 121.265625 130.46875 121.441406 C 130.117188 121.644531 130.066406 122.046875 130.222656 122.386719 C 130.25 122.453125 130.277344 122.515625 130.304688 122.582031 C 130.324219 122.621094 130.339844 122.660156 130.355469 122.703125 C 130.351562 122.683594 130.367188 122.722656 130.390625 122.78125 C 130.394531 122.792969 130.402344 122.804688 130.40625 122.816406 C 130.402344 122.804688 130.398438 122.796875 130.394531 122.789062 C 130.394531 122.792969 130.398438 122.796875 130.398438 122.800781 C 130.425781 122.863281 130.453125 122.925781 130.476562 122.988281 C 130.753906 123.660156 131.011719 124.339844 131.261719 125.023438 C 131.777344 126.460938 132.242188 127.921875 132.636719 129.398438 C 132.199219 130.871094 131.78125 132.347656 131.375 133.828125 C 130.730469 136.140625 130.113281 138.464844 129.523438 140.792969 C 127.78125 139.375 126.46875 137.464844 125.46875 135.390625 C 125.339844 135.117188 125.214844 134.839844 125.09375 134.5625 C 125.082031 134.542969 125.039062 134.433594 125.035156 134.421875 C 125.011719 134.375 124.992188 134.324219 124.972656 134.277344 C 124.917969 134.136719 124.859375 134 124.804688 133.859375 C 124.613281 133.355469 124.433594 132.847656 124.269531 132.332031 C 124.015625 131.53125 123.800781 130.71875 123.625 129.898438 C 123.550781 129.5625 123.484375 129.21875 123.433594 128.875 C 123.742188 128.738281 124.054688 128.613281 124.371094 128.484375 C 125.160156 128.15625 125.953125 127.824219 126.746094 127.5 C 127.007812 127.390625 127.300781 127.304688 127.503906 127.089844 C 127.761719 126.816406 127.921875 126.390625 128.097656 126.058594 C 128.277344 125.730469 128.453125 125.402344 128.628906 125.070312 C 128.800781 124.753906 129.0625 124.398438 129.140625 124.039062 C 129.199219 123.75 129.09375 123.519531 128.925781 123.289062 C 128.6875 122.953125 128.445312 122.621094 128.203125 122.289062 C 128.03125 122.054688 127.878906 121.746094 127.65625 121.558594 C 127.421875 121.367188 127.136719 121.363281 126.855469 121.4375 C 126.472656 121.539062 126.097656 121.71875 125.726562 121.859375 C 125.335938 122.007812 124.945312 122.160156 124.554688 122.308594 C 124.230469 122.429688 123.835938 122.523438 123.558594 122.734375 C 123.296875 122.9375 123.121094 123.265625 122.933594 123.53125 C 122.484375 124.152344 122.039062 124.773438 121.589844 125.390625 C 121.609375 124.921875 121.628906 124.453125 121.648438 123.980469 C 121.746094 121.640625 121.84375 119.296875 121.9375 116.957031 C 121.976562 116.011719 122.015625 115.066406 122.054688 114.125 C 122.078125 113.605469 122.15625 113.035156 122.035156 112.527344 C 121.90625 111.988281 121.570312 111.5625 121.132812 111.289062 C 121.960938 107.265625 122.976562 103.28125 124.265625 99.382812 C 124.796875 97.777344 125.371094 96.183594 126 94.613281 C 126.523438 93.296875 127.066406 92.050781 127.703125 90.710938 C 128.664062 88.691406 129.730469 86.71875 130.941406 84.839844 C 131.375 84.164062 131.828125 83.503906 132.304688 82.855469 C 132.402344 82.722656 132.503906 82.585938 132.609375 82.453125 C 132.613281 82.445312 132.621094 82.433594 132.625 82.425781 C 132.632812 82.417969 132.640625 82.410156 132.652344 82.390625 C 132.703125 82.328125 132.753906 82.265625 132.804688 82.199219 C 132.96875 81.992188 133.136719 81.785156 133.308594 81.582031 C 133.566406 81.277344 133.839844 80.988281 134.117188 80.699219 C 134.730469 80.941406 135.339844 81.199219 135.941406 81.472656 C 140.578125 83.609375 144.769531 86.785156 147.707031 91 C 149.511719 93.589844 150.820312 96.484375 151.644531 99.53125 C 151.988281 100.804688 152.226562 102.105469 152.480469 103.398438 C 153.21875 107.167969 153.816406 110.964844 154.332031 114.769531 C 155.203125 121.210938 155.804688 127.699219 156.039062 134.195312 C 156.304688 141.46875 156.152344 148.816406 155.027344 156.015625 Z M 120.375 171.867188 C 120.273438 172.351562 120.175781 172.839844 120.066406 173.320312 C 119.988281 173.664062 119.910156 173.984375 119.738281 174.265625 C 119.402344 174.820312 118.324219 174.800781 117.679688 174.847656 C 115.824219 174.992188 113.957031 174.867188 112.140625 174.457031 C 110.355469 174.054688 108.6875 173.367188 107.054688 172.554688 C 105.429688 171.746094 103.820312 170.878906 102.097656 170.285156 C 100.363281 169.6875 98.539062 169.492188 96.714844 169.433594 C 94.910156 169.375 93.097656 169.441406 91.300781 169.265625 C 89.535156 169.09375 87.882812 168.605469 86.355469 167.691406 C 85.566406 167.21875 84.820312 166.683594 84.070312 166.148438 C 83.363281 165.644531 82.664062 165.128906 82.0625 164.5 C 80.878906 163.261719 80.410156 161.613281 80.046875 159.984375 C 79.625 158.113281 79.191406 156.222656 79.089844 154.300781 C 79.042969 153.375 79.046875 152.421875 79.230469 151.507812 C 79.242188 151.457031 79.25 151.402344 79.261719 151.347656 C 79.671875 153.824219 80.757812 156.152344 82.410156 158.0625 C 82.652344 158.34375 83.136719 158.3125 83.386719 158.0625 C 83.667969 157.78125 83.632812 157.367188 83.386719 157.085938 C 81.652344 155.078125 80.617188 152.488281 80.480469 149.84375 C 80.492188 149.820312 80.507812 149.804688 80.515625 149.78125 C 80.679688 149.480469 80.796875 149.152344 80.914062 148.832031 C 80.964844 148.6875 81.015625 148.542969 81.070312 148.398438 C 81.074219 148.390625 81.078125 148.382812 81.078125 148.375 C 81.09375 148.34375 81.109375 148.3125 81.121094 148.28125 C 81.15625 148.210938 81.191406 148.144531 81.230469 148.078125 C 81.246094 148.054688 81.308594 147.96875 81.3125 147.957031 C 81.339844 147.925781 81.363281 147.898438 81.390625 147.875 C 81.40625 147.863281 81.457031 147.820312 81.480469 147.808594 C 81.492188 147.800781 81.503906 147.792969 81.511719 147.789062 C 81.558594 147.773438 81.609375 147.757812 81.660156 147.746094 C 81.890625 147.699219 82.210938 147.746094 82.507812 147.761719 C 82.984375 150.675781 84.121094 153.480469 85.808594 155.90625 C 86.019531 156.210938 86.414062 156.351562 86.753906 156.152344 C 87.058594 155.976562 87.214844 155.515625 87 155.207031 C 85.378906 152.871094 84.308594 150.21875 83.84375 147.417969 C 83.898438 147.378906 83.949219 147.335938 84 147.289062 C 84.308594 146.996094 84.4375 146.609375 84.625 146.242188 C 84.890625 145.71875 85.363281 145.359375 85.90625 145.195312 C 86.222656 145.101562 86.371094 145.082031 86.71875 145.097656 C 86.742188 145.097656 86.878906 145.113281 86.890625 145.113281 C 86.953125 145.125 87.019531 145.136719 87.082031 145.152344 C 87.128906 145.164062 87.167969 145.175781 87.199219 145.1875 C 87.332031 148.371094 88.484375 151.433594 90.453125 153.941406 C 90.683594 154.238281 91.191406 154.183594 91.429688 153.941406 C 91.722656 153.652344 91.664062 153.257812 91.429688 152.964844 C 89.632812 150.667969 88.628906 147.769531 88.570312 144.859375 C 89.179688 144.132812 90.1875 143.753906 91.167969 143.785156 C 91.664062 143.800781 92.191406 143.9375 92.640625 144.207031 C 92.886719 144.351562 93.027344 144.46875 93.257812 144.714844 C 93.480469 144.953125 93.640625 145.1875 93.824219 145.484375 C 94.53125 146.664062 94.949219 147.996094 95.867188 149.042969 C 96.777344 150.078125 98.144531 150.582031 99.507812 150.472656 C 100.8125 150.371094 102.085938 149.824219 103.042969 148.929688 C 103.632812 150.277344 103.769531 151.796875 103.398438 153.242188 C 103.242188 153.859375 103.882812 154.28125 104.414062 154.023438 C 107.539062 152.511719 111.15625 152.882812 114.511719 153.027344 C 116.292969 153.105469 118.074219 153.136719 119.84375 152.898438 C 120.292969 152.835938 120.742188 152.757812 121.1875 152.660156 C 121.46875 152.597656 121.792969 152.476562 122 152.71875 C 122.472656 153.265625 122.589844 154.089844 122.597656 154.78125 C 122.609375 156.535156 122.039062 158.238281 122.125 160.003906 C 122.171875 161 122.269531 161.976562 122.171875 162.976562 C 122.074219 163.957031 121.855469 164.917969 121.652344 165.878906 C 121.226562 167.875 120.800781 169.871094 120.375 171.867188 Z M 78.230469 168.742188 C 77.511719 169.554688 76.792969 170.359375 76.066406 171.164062 C 75.882812 170.097656 75.1875 169.152344 74.539062 168.316406 C 73.898438 167.488281 73.210938 166.707031 72.675781 165.808594 C 72.144531 164.910156 71.753906 163.945312 71.554688 162.921875 C 71.335938 161.769531 71.4375 160.636719 71.800781 159.566406 C 73.585938 157.742188 75.367188 155.917969 77.148438 154.09375 C 77.152344 154.089844 77.152344 154.089844 77.15625 154.089844 C 77.15625 154.085938 77.15625 154.085938 77.15625 154.082031 C 77.335938 153.902344 77.511719 153.722656 77.6875 153.539062 C 77.6875 153.59375 77.6875 153.644531 77.6875 153.695312 C 77.703125 154.753906 77.832031 155.808594 78.003906 156.851562 C 78.171875 157.867188 78.390625 158.875 78.609375 159.878906 C 78.800781 160.761719 79 161.648438 79.308594 162.5 C 79.636719 163.417969 80.074219 164.273438 80.691406 165.03125 C 80.816406 165.1875 80.953125 165.335938 81.089844 165.480469 C 80.140625 166.570312 79.1875 167.660156 78.230469 168.742188 Z M 76.101562 171.382812 C 76.101562 171.390625 76.101562 171.394531 76.101562 171.398438 C 76.097656 171.390625 76.097656 171.386719 76.097656 171.378906 C 76.101562 171.378906 76.101562 171.382812 76.101562 171.382812 Z M 74.734375 171.703125 C 74.699219 172.109375 74.332031 172.425781 74.042969 172.683594 C 73.347656 173.3125 72.636719 173.929688 71.929688 174.542969 C 71.890625 174.503906 71.851562 174.46875 71.804688 174.4375 C 68.886719 172.4375 66.597656 169.511719 65.367188 166.191406 C 65.238281 165.839844 64.898438 165.601562 64.519531 165.707031 C 64.183594 165.800781 63.90625 166.207031 64.035156 166.558594 C 65.367188 170.148438 67.753906 173.253906 70.875 175.464844 C 69.84375 176.367188 68.804688 177.261719 67.695312 178.054688 C 67.652344 178.011719 67.609375 177.976562 67.554688 177.941406 C 65.964844 176.972656 64.574219 175.714844 63.367188 174.304688 C 62.191406 172.917969 61.175781 171.34375 60.496094 169.652344 C 60.359375 169.304688 60.035156 169.0625 59.644531 169.167969 C 59.316406 169.257812 59.023438 169.671875 59.164062 170.019531 C 60.597656 173.582031 63.214844 176.777344 66.445312 178.871094 C 66.332031 178.941406 66.21875 179.011719 66.105469 179.074219 C 64.828125 179.796875 63.4375 180.335938 62 180.671875 C 61.972656 180.648438 61.949219 180.625 61.917969 180.601562 C 59.367188 178.738281 57.375 176.089844 56.28125 173.125 C 56.152344 172.777344 55.8125 172.539062 55.429688 172.644531 C 55.09375 172.734375 54.820312 173.140625 54.949219 173.496094 C 56.023438 176.414062 57.832031 178.984375 60.1875 180.984375 C 60.152344 180.988281 60.113281 180.996094 60.074219 181 C 59.027344 181.105469 57.9375 181.140625 56.90625 180.902344 C 56 180.695312 55.183594 180.261719 54.488281 179.648438 C 52.996094 178.335938 52.101562 176.539062 51.183594 174.808594 C 50.199219 172.960938 49.101562 171.222656 47.46875 169.875 C 45.964844 168.636719 44.253906 167.707031 42.550781 166.769531 C 40.816406 165.808594 39.125 164.792969 37.648438 163.457031 C 36.878906 162.757812 36.164062 162 35.515625 161.1875 C 34.957031 160.492188 34.273438 159.703125 34.675781 158.773438 C 34.847656 158.375 35.132812 158.011719 35.402344 157.671875 C 35.722656 157.269531 36.0625 156.878906 36.414062 156.503906 C 37.109375 155.761719 37.855469 155.074219 38.636719 154.429688 C 40.207031 153.140625 41.929688 152.035156 43.679688 151.003906 C 45.53125 149.90625 47.46875 148.933594 49.25 147.71875 C 50.113281 147.125 50.90625 146.449219 51.726562 145.796875 C 52.421875 145.242188 53.1875 144.695312 54.039062 144.449219 C 54.285156 144.375 54.539062 144.320312 54.792969 144.308594 C 54.828125 144.3125 54.863281 144.308594 54.898438 144.308594 C 55.035156 144.304688 55.167969 144.316406 55.304688 144.347656 C 55.46875 144.382812 55.675781 144.480469 55.765625 144.550781 C 55.761719 144.546875 55.863281 144.652344 55.902344 144.691406 C 55.910156 144.703125 55.917969 144.710938 55.925781 144.71875 C 55.960938 144.765625 55.988281 144.8125 56.019531 144.863281 C 56.363281 145.453125 56.382812 146.257812 56.449219 147.007812 C 56.632812 149.0625 57.382812 150.972656 58.660156 152.589844 C 59.277344 153.375 60.042969 154.136719 60.921875 154.613281 C 61.089844 154.707031 61.261719 154.78125 61.433594 154.84375 C 61.507812 154.886719 61.59375 154.914062 61.679688 154.925781 C 62.527344 155.183594 63.417969 155.164062 64.316406 155.121094 C 66.421875 155.019531 68.566406 154.976562 70.644531 155.371094 C 71.277344 155.492188 71.902344 155.648438 72.511719 155.855469 C 71.5 156.792969 70.808594 158.105469 70.414062 159.386719 C 69.804688 161.355469 70.050781 163.40625 70.855469 165.277344 C 71.277344 166.257812 71.859375 167.140625 72.511719 167.980469 C 73.132812 168.773438 73.8125 169.527344 74.304688 170.410156 C 74.515625 170.785156 74.773438 171.253906 74.734375 171.703125 Z M 31.074219 145.160156 C 30.796875 140.253906 31.375 135.328125 32.367188 130.527344 C 33.410156 125.46875 34.914062 120.511719 36.679688 115.664062 C 38.300781 111.195312 40.15625 106.8125 42.175781 102.507812 C 43.730469 99.191406 45.382812 95.921875 47.136719 92.707031 C 47.980469 91.152344 48.839844 89.597656 49.757812 88.085938 C 52.042969 84.324219 56.082031 81.75 60.050781 80.074219 C 62.363281 79.09375 64.785156 78.371094 67.234375 77.828125 C 67.714844 77.722656 68.191406 77.625 68.667969 77.535156 C 68.59375 77.675781 68.515625 77.816406 68.441406 77.957031 C 67.632812 79.496094 66.878906 81.058594 66.164062 82.640625 C 65.097656 85.003906 64.121094 87.410156 63.242188 89.847656 C 62.191406 92.765625 61.277344 95.734375 60.53125 98.742188 C 59.695312 102.117188 59.074219 105.546875 58.710938 109.007812 C 58.6875 109.21875 58.671875 109.429688 58.652344 109.640625 C 57.535156 109.722656 56.703125 110.582031 56.648438 111.738281 C 56.621094 112.296875 56.601562 112.851562 56.578125 113.410156 C 56.484375 115.703125 56.390625 117.992188 56.296875 120.285156 C 56.234375 121.839844 56.144531 123.390625 56.105469 124.945312 C 56.085938 125.6875 56.429688 126.371094 57.042969 126.789062 C 57.175781 126.878906 57.316406 126.945312 57.457031 127 C 57.457031 127.570312 57.460938 128.144531 57.472656 128.714844 C 56.886719 129.457031 56.402344 130.289062 55.976562 131.125 C 55.632812 131.804688 55.335938 132.5 55.070312 133.210938 C 54.867188 132.425781 54.691406 131.632812 54.554688 130.832031 C 54.507812 130.570312 54.46875 130.308594 54.429688 130.046875 C 54.425781 130.023438 54.421875 129.996094 54.421875 129.972656 C 54.414062 129.921875 54.40625 129.867188 54.402344 129.8125 C 54.386719 129.707031 54.375 129.597656 54.367188 129.488281 C 54.332031 129.164062 54.308594 128.839844 54.300781 128.515625 C 54.296875 128.355469 54.296875 128.195312 54.296875 128.035156 C 54.300781 127.144531 52.917969 127.140625 52.914062 128.035156 C 52.910156 129.667969 53.191406 131.300781 53.566406 132.886719 C 53.785156 133.820312 54.046875 134.742188 54.335938 135.65625 C 54.136719 136.511719 53.992188 137.382812 53.90625 138.257812 C 53.75 139.847656 53.804688 141.445312 54.023438 143.023438 C 53.847656 143.0625 53.671875 143.109375 53.507812 143.164062 C 52.515625 143.496094 51.667969 144.09375 50.855469 144.730469 C 50.050781 145.367188 49.273438 146.035156 48.421875 146.613281 C 47.488281 147.242188 46.507812 147.800781 45.523438 148.351562 C 41.835938 150.425781 38.082031 152.601562 35.207031 155.773438 C 34.847656 156.167969 34.472656 156.582031 34.144531 157.023438 C 32.199219 153.382812 31.304688 149.269531 31.074219 145.160156 Z M 70.414062 77.234375 C 71.171875 77.117188 71.925781 77.015625 72.675781 76.933594 C 74.554688 76.734375 76.421875 76.617188 78.261719 76.203125 C 78.175781 76.390625 78.089844 76.582031 78.003906 76.769531 C 77.199219 78.5625 76.433594 80.375 75.691406 82.195312 C 74.65625 84.746094 73.683594 87.320312 72.78125 89.917969 C 71.707031 92.996094 70.730469 96.105469 69.882812 99.25 C 68.992188 102.550781 68.242188 105.894531 67.710938 109.273438 C 67.675781 109.511719 67.640625 109.75 67.605469 109.992188 C 66.664062 109.953125 65.722656 109.914062 64.78125 109.875 C 63.199219 109.808594 61.613281 109.742188 60.03125 109.679688 C 60.335938 106.496094 60.871094 103.34375 61.597656 100.230469 C 62.308594 97.179688 63.195312 94.164062 64.226562 91.207031 C 64.683594 89.894531 65.167969 88.597656 65.679688 87.308594 C 66.148438 86.125 66.550781 85.160156 67.058594 84.019531 C 67.796875 82.34375 68.582031 80.683594 69.425781 79.058594 C 69.742188 78.445312 70.085938 77.839844 70.414062 77.234375 Z M 80.011719 75.710938 C 80.847656 75.433594 81.664062 75.097656 82.445312 74.691406 C 82.480469 77.820312 83.882812 80.855469 86.019531 83.113281 C 88.371094 85.597656 91.597656 87.152344 94.898438 87.890625 C 98.347656 88.664062 101.980469 88.625 105.402344 87.730469 C 108.683594 86.871094 111.710938 85.195312 114.15625 82.835938 C 116.445312 80.632812 118.257812 77.859375 119.179688 74.804688 C 119.589844 75.273438 120.039062 75.710938 120.523438 76.105469 C 121.355469 76.78125 122.265625 77.335938 123.242188 77.761719 C 123.023438 78.128906 122.808594 78.5 122.597656 78.871094 C 121.679688 80.476562 120.804688 82.109375 119.96875 83.761719 C 118.761719 86.136719 117.632812 88.546875 116.585938 90.996094 C 115.335938 93.914062 114.199219 96.875 113.222656 99.894531 C 112.199219 103.058594 111.347656 106.285156 110.765625 109.558594 C 110.707031 109.890625 110.652344 110.222656 110.597656 110.558594 C 109.4375 110.601562 108.5625 111.476562 108.507812 112.660156 C 108.480469 113.21875 108.460938 113.777344 108.4375 114.332031 C 108.34375 116.597656 108.25 118.863281 108.160156 121.128906 C 107.683594 121.3125 107.246094 121.703125 106.875 121.996094 C 106.722656 122.113281 106.574219 122.238281 106.425781 122.359375 C 105.269531 122.714844 104.09375 123.011719 102.910156 123.257812 C 101.332031 123.589844 99.757812 123.832031 98.210938 124.007812 C 96.808594 124.171875 95.398438 124.28125 93.988281 124.359375 C 94 124.328125 94.011719 124.300781 94.019531 124.269531 C 94.523438 122.371094 94.394531 120.367188 93.859375 118.492188 C 93.738281 118.050781 93.609375 117.59375 93.425781 117.175781 C 93.292969 116.867188 93.050781 116.636719 92.714844 116.574219 C 92.433594 116.523438 92.136719 116.601562 91.925781 116.796875 C 91.640625 117.058594 91.558594 117.507812 91.421875 117.851562 C 91.007812 118.871094 90.492188 119.863281 89.816406 120.738281 C 89.496094 121.160156 89.125 121.554688 88.6875 121.859375 C 88.464844 122.011719 88.226562 122.121094 87.96875 122.1875 C 87.816406 122.222656 87.660156 122.222656 87.511719 122.246094 C 87.320312 122.246094 87.132812 122.222656 86.945312 122.175781 C 86.753906 122.121094 86.574219 122.042969 86.398438 121.949219 C 85.980469 121.691406 85.65625 121.34375 85.46875 120.886719 C 85.25 120.34375 85.316406 119.765625 85.445312 119.207031 C 85.511719 119.003906 85.574219 118.804688 85.667969 118.613281 C 85.707031 118.527344 85.757812 118.441406 85.800781 118.355469 C 86.234375 117.667969 86.816406 117.132812 87.515625 116.714844 C 87.746094 116.578125 88.027344 116.480469 88.207031 116.265625 C 88.382812 116.054688 88.421875 115.75 88.328125 115.496094 C 88.226562 115.210938 87.96875 115.058594 87.726562 114.90625 C 87.371094 114.675781 87 114.464844 86.617188 114.277344 C 85.886719 113.925781 85.109375 113.660156 84.304688 113.542969 C 82.820312 113.328125 81.304688 113.667969 80.085938 114.554688 C 78.945312 115.382812 78.117188 116.578125 77.496094 117.828125 C 76.785156 119.261719 76.484375 120.960938 76.46875 122.550781 C 76.464844 122.972656 76.488281 123.398438 76.535156 123.816406 C 75.292969 123.691406 74.050781 123.550781 72.8125 123.386719 C 72.765625 123.378906 72.714844 123.371094 72.667969 123.367188 C 72.660156 123.367188 72.65625 123.363281 72.648438 123.363281 C 72.546875 123.351562 72.441406 123.335938 72.339844 123.320312 C 72.160156 123.296875 71.980469 123.269531 71.800781 123.246094 C 71.507812 123.203125 71.210938 123.160156 70.917969 123.117188 C 70.609375 123.066406 70.300781 123.015625 69.992188 122.964844 C 69.980469 122.964844 69.964844 122.960938 69.949219 122.960938 C 69.898438 122.949219 69.847656 122.949219 69.796875 122.949219 C 69.890625 120.644531 69.984375 118.339844 70.082031 116.035156 C 70.121094 115.089844 70.15625 114.144531 70.195312 113.203125 C 70.21875 112.683594 70.296875 112.113281 70.175781 111.605469 C 70.019531 110.945312 69.550781 110.453125 68.964844 110.203125 C 69.429688 107.066406 70.089844 103.960938 70.878906 100.894531 C 71.699219 97.714844 72.652344 94.570312 73.707031 91.460938 C 74.621094 88.777344 75.605469 86.113281 76.65625 83.480469 C 76.878906 82.921875 77.105469 82.367188 77.332031 81.8125 C 77.4375 81.554688 77.546875 81.296875 77.652344 81.039062 C 77.703125 80.914062 77.757812 80.789062 77.808594 80.664062 C 77.816406 80.648438 77.84375 80.578125 77.855469 80.550781 C 77.871094 80.519531 77.90625 80.4375 77.914062 80.414062 C 78.265625 79.589844 78.621094 78.765625 78.984375 77.945312 C 79.320312 77.199219 79.664062 76.457031 80.011719 75.710938 Z M 83.84375 73.867188 C 84.472656 73.445312 85.066406 72.972656 85.605469 72.441406 C 87.414062 70.664062 88.605469 68.246094 88.875 65.722656 C 91.460938 67.566406 94.515625 68.613281 97.65625 69.054688 C 100.667969 69.476562 103.761719 69.210938 106.640625 68.207031 C 109.445312 67.230469 112.015625 65.621094 114.101562 63.507812 C 114.410156 63.191406 114.707031 62.863281 114.996094 62.53125 C 115.058594 65 115.527344 67.519531 116.332031 69.789062 C 116.78125 71.054688 117.371094 72.289062 118.113281 73.414062 C 117.464844 76.246094 115.992188 78.847656 114.03125 80.984375 C 111.921875 83.289062 109.273438 85.03125 106.308594 86.019531 C 103.199219 87.054688 99.828125 87.328125 96.59375 86.8125 C 93.488281 86.316406 90.394531 85.152344 87.988281 83.078125 C 85.664062 81.070312 83.988281 78.179688 83.835938 75.066406 C 83.816406 74.679688 83.824219 74.292969 83.847656 73.90625 C 83.847656 73.894531 83.84375 73.878906 83.84375 73.867188 Z M 84.816406 59.253906 C 83.222656 56.480469 82.519531 53.25 82.015625 50.089844 C 81.53125 47.050781 81.316406 43.96875 81.265625 40.890625 C 81.253906 40.285156 81.253906 39.675781 81.253906 39.066406 C 81.257812 39.042969 81.257812 39.019531 81.253906 38.996094 C 81.261719 37.988281 81.285156 36.980469 81.339844 35.972656 C 81.902344 35.824219 82.464844 35.679688 83.027344 35.542969 C 84.578125 35.171875 86.140625 34.839844 87.707031 34.554688 C 89.617188 34.210938 91.382812 33.953125 93.285156 33.757812 C 95.339844 33.550781 97.40625 33.4375 99.472656 33.457031 C 103.449219 33.492188 107.589844 33.992188 111.1875 35.632812 C 112.125 36.058594 113.011719 36.550781 114.027344 36.78125 C 115.003906 37.003906 116.011719 37.050781 117.003906 36.917969 C 118.078125 36.773438 119.128906 36.414062 120.058594 35.859375 C 120.0625 39.066406 119.894531 42.277344 119.507812 45.460938 C 119.183594 48.132812 118.679688 50.875 117.988281 53.519531 C 117.660156 54.769531 117.277344 56.0625 116.765625 57.199219 C 116.183594 58.488281 115.40625 59.792969 114.582031 60.867188 C 112.839844 63.121094 110.652344 64.882812 108.097656 66.117188 C 105.597656 67.332031 102.773438 67.933594 99.964844 67.867188 C 98.285156 67.828125 96.714844 67.546875 95.074219 67.109375 C 93.589844 66.714844 92.238281 66.167969 90.917969 65.398438 C 88.386719 63.925781 86.28125 61.792969 84.816406 59.253906 Z M 80.546875 34.753906 C 80.539062 34.753906 80.53125 34.753906 80.523438 34.757812 C 80.382812 34.792969 80.246094 34.820312 80.125 34.828125 C 79.6875 34.851562 79.304688 34.753906 78.9375 34.527344 C 78.609375 34.328125 78.359375 34.054688 78.191406 33.664062 C 78.160156 33.589844 78.078125 33.273438 78.070312 33.167969 C 78.039062 32.875 78.03125 32.582031 78.042969 32.289062 C 78.105469 30.613281 78.765625 29.046875 79.695312 27.667969 C 79.707031 27.65625 79.714844 27.640625 79.726562 27.628906 C 83.976562 25.863281 88.476562 24.625 93.039062 24.132812 C 95.082031 23.914062 97.140625 23.832031 99.191406 23.894531 C 101.042969 23.953125 102.90625 24.128906 104.640625 24.402344 C 107.785156 24.90625 110.875 25.742188 113.839844 26.902344 C 114.15625 27.027344 114.46875 27.152344 114.785156 27.285156 C 114.789062 27.285156 114.800781 27.292969 114.816406 27.296875 C 114.84375 27.308594 114.894531 27.332031 114.898438 27.332031 C 114.964844 27.359375 115.03125 27.390625 115.097656 27.417969 C 115.253906 27.484375 115.40625 27.554688 115.5625 27.625 C 116.113281 27.871094 116.660156 28.128906 117.199219 28.398438 C 118.105469 28.855469 118.996094 29.34375 119.859375 29.878906 C 120.460938 30.246094 121.046875 30.636719 121.609375 31.058594 C 121.621094 31.066406 121.628906 31.074219 121.640625 31.082031 C 121.683594 31.117188 121.730469 31.152344 121.773438 31.191406 C 121.851562 31.253906 121.925781 31.316406 122 31.382812 C 122.003906 31.382812 122.003906 31.386719 122.007812 31.386719 C 121.410156 33.015625 120.300781 34.28125 118.679688 35.03125 C 118.566406 35.082031 118.585938 35.074219 118.507812 35.105469 C 118.40625 35.144531 118.300781 35.183594 118.199219 35.222656 C 117.976562 35.296875 117.753906 35.363281 117.527344 35.417969 C 117.3125 35.472656 117.09375 35.515625 116.875 35.550781 C 116.867188 35.550781 116.832031 35.554688 116.8125 35.558594 C 116.769531 35.5625 116.730469 35.570312 116.691406 35.574219 C 116.554688 35.585938 116.417969 35.597656 116.28125 35.601562 C 115.328125 35.652344 114.554688 35.542969 113.648438 35.234375 C 112.785156 34.945312 111.90625 34.425781 111.003906 34.058594 C 110.113281 33.695312 109.199219 33.394531 108.269531 33.148438 C 106.296875 32.621094 104.265625 32.328125 102.230469 32.183594 C 98.191406 31.886719 94.125 32.1875 90.125 32.765625 C 87.050781 33.210938 84.003906 33.839844 81 34.628906 C 80.847656 34.667969 80.695312 34.714844 80.546875 34.753906 Z M 78.296875 49.15625 C 77.433594 48.355469 76.949219 47.285156 76.691406 46.140625 C 76.410156 44.898438 76.378906 43.582031 76.445312 42.316406 C 76.496094 41.238281 76.753906 40.015625 77.648438 39.355469 C 77.890625 39.175781 78.023438 39.117188 78.300781 39.054688 C 78.472656 39.015625 78.714844 39.003906 78.992188 39.027344 C 79.140625 39.039062 79.113281 39.035156 79.257812 39.066406 C 79.398438 39.097656 79.539062 39.136719 79.667969 39.191406 C 79.679688 39.195312 79.691406 39.203125 79.710938 39.210938 C 79.765625 39.242188 79.820312 39.269531 79.871094 39.304688 C 79.863281 42.261719 80.007812 45.222656 80.363281 48.15625 C 80.441406 48.820312 80.53125 49.492188 80.628906 50.160156 C 79.761719 50.136719 78.960938 49.765625 78.296875 49.15625 Z M 79.652344 20.464844 C 79.6875 19.996094 79.734375 19.527344 79.792969 19.0625 C 79.792969 19.046875 79.792969 19.039062 79.796875 19.03125 C 79.796875 19.027344 79.796875 19.027344 79.796875 19.023438 C 79.804688 18.964844 79.8125 18.90625 79.820312 18.847656 C 79.839844 18.71875 79.859375 18.59375 79.878906 18.46875 C 79.921875 18.222656 79.964844 17.972656 80.015625 17.726562 C 80.210938 16.730469 80.480469 15.742188 80.839844 14.785156 C 80.882812 14.667969 80.929688 14.546875 80.976562 14.429688 C 81 14.367188 81.027344 14.308594 81.050781 14.25 C 81.050781 14.246094 81.050781 14.246094 81.054688 14.242188 C 81.0625 14.21875 81.074219 14.195312 81.082031 14.171875 C 81.191406 13.925781 81.300781 13.683594 81.421875 13.445312 C 81.65625 12.96875 81.917969 12.503906 82.207031 12.058594 C 82.355469 11.828125 82.511719 11.601562 82.671875 11.382812 C 82.714844 11.328125 82.753906 11.273438 82.792969 11.222656 C 82.792969 11.21875 82.796875 11.21875 82.796875 11.214844 C 82.8125 11.199219 82.824219 11.179688 82.839844 11.164062 C 82.921875 11.058594 83.007812 10.953125 83.09375 10.847656 C 83.460938 10.414062 83.855469 10.007812 84.277344 9.628906 C 84.488281 9.4375 84.703125 9.257812 84.925781 9.082031 C 84.925781 9.082031 84.925781 9.078125 84.925781 9.078125 C 84.949219 9.0625 84.976562 9.042969 85 9.023438 C 85.058594 8.980469 85.117188 8.9375 85.175781 8.894531 C 85.300781 8.804688 85.429688 8.714844 85.558594 8.628906 C 86.070312 8.285156 86.609375 7.980469 87.164062 7.710938 C 87.308594 7.640625 87.453125 7.574219 87.597656 7.511719 C 87.617188 7.5 87.734375 7.453125 87.75 7.445312 C 87.820312 7.414062 87.894531 7.386719 87.964844 7.355469 C 88.285156 7.230469 88.613281 7.113281 88.941406 7.007812 C 89.636719 6.785156 90.347656 6.609375 91.0625 6.476562 C 91.429688 6.410156 91.878906 6.339844 92.136719 6.308594 C 92.339844 6.28125 92.542969 6.261719 92.746094 6.234375 C 92.683594 6.242188 92.558594 6.257812 92.617188 6.253906 C 92.789062 6.234375 92.960938 6.210938 93.136719 6.191406 C 94.023438 6.09375 94.914062 6.027344 95.804688 5.980469 C 99.035156 5.8125 102.289062 5.898438 105.5 6.296875 C 107.410156 6.535156 109.371094 6.917969 111.25 7.445312 C 113.117188 7.96875 114.96875 8.628906 116.652344 9.605469 C 119.65625 11.347656 122.128906 14.09375 123.429688 17.28125 C 124.828125 20.707031 124.945312 24.46875 123.679688 27.953125 C 123.40625 28.710938 123.058594 29.4375 122.652344 30.132812 C 122.1875 29.757812 121.695312 29.410156 121.191406 29.085938 C 119.289062 27.839844 117.246094 26.828125 115.152344 25.949219 C 112.183594 24.707031 109.078125 23.792969 105.910156 23.222656 C 101.914062 22.5 97.832031 22.308594 93.785156 22.675781 C 88.988281 23.109375 84.28125 24.292969 79.816406 26.105469 C 79.816406 26.101562 79.816406 26.101562 79.816406 26.097656 C 79.8125 26.046875 79.804688 25.992188 79.796875 25.941406 C 79.765625 25.671875 79.734375 25.402344 79.710938 25.128906 C 79.566406 23.582031 79.542969 22.015625 79.652344 20.464844 Z M 81.054688 14.238281 C 81.066406 14.207031 81.089844 14.160156 81.054688 14.238281 Z M 82.796875 11.214844 C 82.816406 11.1875 82.859375 11.136719 82.796875 11.214844 Z M 100.707031 3.820312 C 101.261719 3.585938 101.945312 3.484375 102.5 3.554688 C 103.421875 3.667969 104.234375 4.140625 104.8125 4.828125 C 103.09375 4.640625 101.363281 4.542969 99.636719 4.523438 C 99.945312 4.230469 100.3125 3.988281 100.707031 3.820312 Z M 121.421875 39.421875 C 121.628906 39.191406 122.011719 39.050781 122.351562 39.019531 C 122.460938 39.007812 122.578125 39.003906 122.691406 39.003906 C 122.753906 39.003906 122.816406 39.007812 122.878906 39.011719 C 122.894531 39.011719 122.964844 39.019531 122.984375 39.019531 C 123.078125 39.035156 123.167969 39.054688 123.261719 39.082031 C 123.316406 39.097656 123.367188 39.113281 123.421875 39.132812 C 123.4375 39.136719 123.449219 39.140625 123.457031 39.140625 C 123.46875 39.148438 123.484375 39.160156 123.507812 39.175781 C 124.4375 39.75 124.820312 40.75 124.902344 41.839844 C 124.992188 43.105469 124.902344 44.453125 124.640625 45.699219 C 124.40625 46.816406 123.988281 47.929688 123.195312 48.769531 C 122.417969 49.59375 121.28125 50.199219 120.1875 50.058594 C 120.3125 49.390625 120.425781 48.722656 120.53125 48.054688 C 120.976562 45.214844 121.25 42.34375 121.367188 39.46875 C 121.386719 39.453125 121.40625 39.4375 121.421875 39.421875 Z M 120.714844 113.109375 C 120.714844 113.121094 120.710938 113.136719 120.710938 113.152344 C 120.710938 113.214844 120.707031 113.28125 120.703125 113.347656 C 120.675781 114.011719 120.648438 114.679688 120.621094 115.34375 C 120.53125 117.59375 120.4375 119.84375 120.34375 122.09375 C 120.285156 123.523438 120.246094 124.957031 120.167969 126.386719 C 120.144531 126.777344 119.8125 127.074219 119.386719 127.066406 C 118.902344 127.046875 118.417969 127.027344 117.933594 127.007812 C 117.53125 126.316406 117.046875 125.675781 116.523438 125.074219 C 115.785156 124.234375 114.945312 123.386719 113.992188 122.792969 C 113.691406 122.605469 113.300781 122.613281 113.089844 122.929688 C 112.945312 123.144531 112.910156 123.449219 112.847656 123.695312 C 112.757812 124.023438 112.671875 124.355469 112.585938 124.6875 C 112.402344 125.378906 112.21875 126.070312 112.039062 126.765625 C 111.804688 126.753906 111.570312 126.746094 111.335938 126.734375 L 110.324219 126.695312 C 110.238281 126.691406 110.152344 126.6875 110.066406 126.683594 C 109.9375 126.675781 109.9375 126.679688 109.804688 126.636719 C 109.5 126.53125 109.335938 126.226562 109.347656 125.851562 C 109.351562 125.675781 109.359375 125.5 109.367188 125.328125 C 109.378906 125.058594 109.390625 124.789062 109.402344 124.515625 C 109.53125 124.019531 109.65625 123.519531 109.773438 123.023438 C 109.898438 122.472656 109.898438 121.816406 109.53125 121.402344 C 109.601562 119.632812 109.675781 117.859375 109.75 116.089844 C 109.785156 115.21875 109.820312 114.347656 109.855469 113.480469 L 109.886719 112.765625 C 109.886719 112.714844 109.890625 112.667969 109.890625 112.617188 C 109.890625 112.609375 109.890625 112.605469 109.894531 112.597656 C 109.902344 112.5 109.894531 112.550781 109.925781 112.433594 C 109.933594 112.40625 109.9375 112.398438 109.9375 112.394531 C 109.9375 112.390625 109.9375 112.390625 109.941406 112.382812 C 109.964844 112.328125 110 112.269531 110.035156 112.21875 C 110.164062 112.039062 110.402344 111.929688 110.671875 111.933594 C 110.710938 111.933594 110.746094 111.9375 110.785156 111.941406 C 111.046875 111.949219 111.3125 111.960938 111.574219 111.972656 C 112.589844 112.015625 113.605469 112.054688 114.617188 112.097656 C 116.410156 112.171875 118.203125 112.230469 119.996094 112.320312 C 120.121094 112.324219 120.144531 112.324219 120.242188 112.359375 C 120.257812 112.367188 120.378906 112.425781 120.429688 112.464844 C 120.398438 112.441406 120.535156 112.558594 120.570312 112.601562 C 120.535156 112.558594 120.632812 112.710938 120.660156 112.761719 C 120.664062 112.769531 120.664062 112.773438 120.667969 112.785156 C 120.6875 112.839844 120.707031 112.898438 120.714844 112.957031 C 120.710938 112.949219 120.714844 113.078125 120.714844 113.109375 Z M 122.496094 128.234375 C 121.992188 128.492188 121.546875 128.84375 121.089844 129.175781 C 120.425781 129.65625 119.757812 130.140625 119.09375 130.621094 C 119.054688 130.109375 118.964844 129.597656 118.824219 129.097656 L 119.625 128.519531 C 120.234375 128.078125 120.898438 127.671875 121.4375 127.144531 C 121.960938 126.636719 122.355469 125.992188 122.777344 125.40625 C 123.230469 124.777344 123.652344 124.089844 124.152344 123.496094 C 124.609375 123.28125 125.117188 123.132812 125.585938 122.953125 C 126.046875 122.777344 126.511719 122.597656 126.972656 122.421875 C 127.136719 122.625 127.339844 122.949219 127.496094 123.167969 C 127.691406 123.4375 127.929688 123.703125 128.097656 123.992188 C 128 124.207031 127.863281 124.414062 127.753906 124.617188 C 127.625 124.855469 127.496094 125.089844 127.371094 125.328125 C 127.175781 125.6875 126.941406 126.050781 126.769531 126.429688 C 126.644531 126.476562 126.515625 126.546875 126.402344 126.59375 C 126.128906 126.707031 125.851562 126.820312 125.578125 126.933594 C 125.027344 127.164062 124.476562 127.390625 123.929688 127.617188 C 123.449219 127.816406 122.960938 127.996094 122.496094 128.234375 Z M 101.511719 146.832031 C 101.78125 146.636719 102.050781 146.441406 102.320312 146.246094 C 103.363281 145.492188 104.40625 144.738281 105.449219 143.980469 C 105.515625 143.933594 105.582031 143.886719 105.648438 143.839844 C 105.648438 144.308594 105.484375 144.78125 105.222656 145.160156 C 104.789062 145.777344 104.097656 146.175781 103.5 146.613281 C 102.960938 147 102.425781 147.386719 101.890625 147.773438 L 101.316406 146.980469 C 101.382812 146.925781 101.449219 146.875 101.511719 146.832031 Z M 100.75 146.1875 L 100.21875 145.457031 C 101.75 144.347656 103.28125 143.242188 104.816406 142.132812 L 104.875 142.214844 C 105.027344 142.429688 105.207031 142.640625 105.351562 142.867188 C 104.441406 143.527344 103.527344 144.183594 102.617188 144.84375 C 102.109375 145.210938 101.601562 145.578125 101.097656 145.945312 C 100.980469 146.027344 100.863281 146.105469 100.75 146.1875 Z M 98.347656 147.253906 C 98.597656 146.960938 98.84375 146.667969 99.089844 146.375 C 99.167969 146.28125 99.253906 146.1875 99.335938 146.09375 C 99.550781 146.390625 99.761719 146.683594 99.976562 146.976562 C 100.261719 147.375 100.546875 147.765625 100.828125 148.167969 C 100.878906 148.238281 100.933594 148.332031 100.992188 148.425781 L 100.285156 148.933594 C 99.988281 149.019531 99.6875 149.078125 99.429688 149.097656 C 98.613281 149.148438 97.894531 148.9375 97.300781 148.484375 C 97.652344 148.074219 98 147.664062 98.347656 147.253906 Z M 91.417969 139.488281 C 91.519531 139.382812 91.628906 139.21875 91.75 139.140625 C 91.78125 139.121094 91.816406 139.109375 91.855469 139.101562 C 94.808594 139.429688 98.609375 140.820312 98.632812 144.332031 C 98.632812 144.511719 98.636719 144.699219 98.609375 144.875 C 98.574219 145.113281 98.421875 145.253906 98.269531 145.433594 C 97.976562 145.777344 97.683594 146.125 97.394531 146.472656 C 97.085938 146.832031 96.78125 147.191406 96.476562 147.554688 C 95.746094 146.417969 95.339844 145.109375 94.496094 144.042969 C 93.660156 142.984375 92.402344 142.40625 91.0625 142.398438 C 89.75 142.390625 88.476562 142.917969 87.601562 143.875 C 87.476562 143.835938 87.347656 143.808594 87.21875 143.785156 C 88.617188 142.351562 90.015625 140.921875 91.417969 139.488281 Z M 108.53125 122.917969 C 108.46875 123.15625 108.398438 123.390625 108.339844 123.628906 C 108.203125 124.179688 108.0625 124.730469 107.925781 125.277344 C 107.667969 126.304688 107.414062 127.328125 107.15625 128.351562 C 106.429688 128.097656 105.707031 127.839844 104.980469 127.585938 C 104.492188 127.414062 104.003906 127.242188 103.511719 127.066406 C 104.167969 126.253906 104.863281 125.476562 105.609375 124.75 C 106.058594 124.308594 106.527344 123.882812 107.007812 123.476562 C 107.484375 123.074219 107.964844 122.621094 108.515625 122.320312 C 108.554688 122.304688 108.589844 122.292969 108.628906 122.277344 C 108.671875 122.472656 108.578125 122.75 108.53125 122.917969 Z M 111.597656 128.433594 C 111.476562 128.886719 111.359375 129.339844 111.238281 129.792969 C 110.269531 129.453125 109.300781 129.109375 108.332031 128.769531 C 108.351562 128.683594 108.367188 128.597656 108.386719 128.515625 C 108.457031 128.242188 108.523438 127.964844 108.59375 127.691406 C 108.609375 127.628906 108.625 127.566406 108.640625 127.5 C 108.722656 127.578125 108.808594 127.648438 108.902344 127.710938 C 109.285156 127.972656 109.722656 128.054688 110.175781 128.070312 L 111.675781 128.132812 C 111.648438 128.234375 111.625 128.332031 111.597656 128.433594 Z M 96.515625 132.339844 C 96.304688 132.277344 96.097656 132.210938 95.894531 132.140625 C 95.746094 132.085938 95.414062 132.03125 95.304688 131.914062 C 95.1875 131.789062 95.398438 131.3125 95.4375 131.132812 C 95.539062 130.6875 95.640625 130.242188 95.738281 129.796875 C 95.78125 129.59375 95.828125 129.390625 95.875 129.1875 C 95.890625 129.128906 95.898438 129.023438 95.9375 128.976562 C 96.019531 128.878906 96.179688 128.925781 96.285156 128.941406 C 96.710938 129 97.136719 129.082031 97.558594 129.15625 C 97.445312 129.882812 97.28125 130.601562 97.066406 131.3125 C 96.949219 131.675781 96.820312 132.035156 96.675781 132.386719 C 96.621094 132.371094 96.570312 132.355469 96.515625 132.339844 Z M 104.25 141.355469 L 103.300781 142.042969 C 102.195312 142.839844 101.089844 143.640625 99.984375 144.4375 C 99.953125 144.460938 99.917969 144.484375 99.882812 144.511719 C 99.878906 144.320312 99.867188 144.136719 99.855469 143.964844 C 99.851562 143.941406 99.847656 143.914062 99.847656 143.890625 C 99.949219 143.769531 100.046875 143.644531 100.15625 143.53125 C 100.335938 143.34375 100.527344 143.164062 100.722656 142.992188 C 101.121094 142.703125 101.523438 142.414062 101.921875 142.128906 C 101.9375 142.117188 101.953125 142.105469 101.972656 142.09375 C 102.644531 141.695312 103.359375 141.382812 104.101562 141.144531 L 104.160156 141.226562 Z M 101.28125 141.066406 C 100.675781 141.433594 100.050781 141.875 99.515625 142.386719 C 99.316406 141.859375 99.039062 141.363281 98.671875 140.917969 C 97.570312 139.558594 95.898438 138.746094 94.199219 138.289062 C 96.59375 135.875 98.226562 132.8125 98.777344 129.425781 C 98.921875 128.554688 99 127.664062 98.992188 126.777344 C 101.609375 127.703125 104.226562 128.625 106.839844 129.550781 C 107.578125 129.808594 108.3125 130.066406 109.046875 130.328125 C 109.40625 130.453125 109.769531 130.582031 110.128906 130.710938 C 110.460938 130.828125 110.8125 130.996094 111.160156 131.050781 C 111.636719 131.125 112.121094 130.910156 112.324219 130.457031 C 112.449219 130.175781 112.5 129.84375 112.578125 129.546875 C 112.679688 129.167969 112.78125 128.789062 112.878906 128.410156 C 113.238281 127.042969 113.601562 125.675781 113.960938 124.308594 C 114.511719 124.757812 115.015625 125.261719 115.503906 125.777344 C 116.132812 126.480469 116.703125 127.253906 117.125 128.101562 C 117.410156 128.679688 117.628906 129.289062 117.773438 129.917969 C 117.855469 130.4375 117.910156 130.941406 117.898438 131.46875 C 117.863281 131.695312 117.867188 131.929688 117.828125 132.152344 C 117.78125 132.46875 117.699219 132.777344 117.613281 133.089844 C 117.375 133.757812 117.078125 134.390625 116.699219 134.996094 C 115.433594 136.921875 113.644531 138.445312 111.394531 139.054688 C 110.832031 139.207031 110.253906 139.300781 109.671875 139.335938 C 109.078125 139.375 108.484375 139.332031 107.890625 139.339844 C 106.667969 139.359375 105.445312 139.496094 104.261719 139.808594 C 103.214844 140.089844 102.203125 140.503906 101.28125 141.066406 Z M 82.941406 140.746094 C 83.730469 138.855469 84.527344 136.96875 85.320312 135.078125 C 85.714844 134.136719 86.105469 133.195312 86.503906 132.253906 C 86.550781 132.148438 86.617188 132.027344 86.671875 131.902344 C 88.355469 131.238281 89.945312 130.167969 91.230469 128.902344 C 92.152344 127.996094 92.925781 126.9375 93.46875 125.769531 C 94.683594 125.710938 95.902344 125.628906 97.113281 125.507812 C 99.507812 125.273438 101.898438 124.925781 104.242188 124.375 C 103.546875 125.089844 102.894531 125.84375 102.28125 126.632812 C 102.085938 126.566406 101.894531 126.496094 101.703125 126.429688 C 101.15625 126.238281 100.613281 126.042969 100.066406 125.851562 C 99.804688 125.757812 99.539062 125.667969 99.277344 125.574219 C 99.058594 125.496094 98.832031 125.386719 98.597656 125.378906 C 98.234375 125.367188 97.890625 125.585938 97.78125 125.933594 C 97.695312 126.191406 97.753906 126.476562 97.757812 126.742188 C 97.761719 127 97.753906 127.253906 97.746094 127.511719 C 97.734375 127.652344 97.722656 127.789062 97.710938 127.929688 C 97.441406 127.882812 97.171875 127.835938 96.902344 127.792969 C 96.515625 127.734375 96.101562 127.640625 95.710938 127.714844 C 94.941406 127.863281 94.738281 128.621094 94.582031 129.28125 C 94.484375 129.707031 94.394531 130.132812 94.300781 130.554688 C 94.226562 130.902344 94.121094 131.25 94.074219 131.605469 C 93.976562 132.292969 94.253906 132.816406 94.902344 133.089844 C 95.273438 133.246094 95.664062 133.367188 96.050781 133.488281 C 96.089844 133.5 96.125 133.511719 96.164062 133.523438 C 95.707031 134.4375 95.15625 135.304688 94.519531 136.105469 C 94.238281 136.460938 93.9375 136.800781 93.628906 137.128906 C 93.347656 137.421875 93.027344 137.683594 92.746094 137.972656 C 92.472656 137.921875 92.121094 137.832031 91.820312 137.867188 C 91.765625 137.863281 91.710938 137.863281 91.65625 137.867188 C 91.179688 137.925781 90.804688 138.304688 90.496094 138.640625 C 90.046875 139.121094 89.589844 139.589844 89.132812 140.058594 L 85.359375 143.921875 C 84.78125 144.117188 84.25 144.457031 83.847656 144.9375 C 83.578125 145.257812 83.414062 145.59375 83.234375 145.96875 C 83.1875 146.066406 83.136719 146.183594 83.070312 146.261719 L 83.039062 146.292969 C 83.023438 146.3125 83.007812 146.328125 82.992188 146.339844 C 82.984375 146.34375 82.917969 146.359375 82.894531 146.367188 C 82.851562 146.378906 82.761719 146.386719 82.660156 146.386719 C 82.210938 146.386719 81.78125 146.320312 81.332031 146.40625 C 80.953125 146.476562 80.589844 146.695312 80.332031 146.980469 C 80.324219 146.988281 80.320312 146.992188 80.316406 147 C 81.191406 144.914062 82.066406 142.832031 82.941406 140.746094 Z M 69.058594 152.976562 C 69.25 152.542969 69.445312 152.109375 69.636719 151.671875 C 70.042969 150.753906 70.453125 149.835938 70.859375 148.921875 C 72.511719 145.1875 74.167969 141.457031 75.824219 137.726562 C 76.652344 135.851562 77.484375 133.980469 78.316406 132.105469 C 78.71875 131.195312 79.121094 130.285156 79.53125 129.375 C 79.539062 129.359375 79.546875 129.339844 79.554688 129.324219 C 79.578125 129.335938 79.601562 129.34375 79.625 129.351562 C 80.039062 129.523438 80.453125 129.695312 80.867188 129.867188 C 82.421875 130.507812 83.972656 131.148438 85.523438 131.789062 C 84.035156 135.335938 82.546875 138.882812 81.058594 142.429688 C 79.613281 145.875 78.167969 149.316406 76.726562 152.761719 C 75.941406 153.558594 75.160156 154.359375 74.378906 155.160156 C 74.34375 155.125 74.300781 155.09375 74.25 155.074219 C 73.027344 154.511719 71.742188 154.15625 70.425781 153.945312 L 68.933594 153.296875 C 68.976562 153.183594 69.015625 153.070312 69.058594 152.976562 Z M 84.296875 120.722656 C 84.515625 121.871094 85.414062 122.839844 86.527344 123.179688 C 87.234375 123.398438 88.011719 123.371094 88.695312 123.085938 C 89.335938 122.820312 89.859375 122.332031 90.316406 121.824219 C 91.332031 120.699219 91.980469 119.347656 92.535156 117.953125 C 92.601562 118.117188 92.667969 118.28125 92.71875 118.445312 C 92.832031 118.804688 92.929688 119.171875 93.011719 119.542969 C 93.101562 119.957031 93.167969 120.371094 93.207031 120.792969 C 93.238281 121.089844 93.21875 121.402344 93.261719 121.699219 C 93.210938 122.046875 93.242188 122.425781 93.203125 122.78125 C 93.15625 123.183594 93.078125 123.578125 92.976562 123.972656 C 92.777344 124.695312 92.492188 125.378906 92.121094 126.03125 C 91.683594 126.773438 91.144531 127.4375 90.550781 128.058594 C 90.105469 128.484375 89.648438 128.886719 89.15625 129.253906 C 88.753906 129.546875 88.332031 129.800781 87.917969 130.074219 C 87.550781 130.28125 87.183594 130.484375 86.800781 130.664062 C 86.617188 130.75 86.429688 130.832031 86.238281 130.910156 C 86.234375 130.90625 86.226562 130.90625 86.21875 130.902344 C 85.777344 130.71875 85.335938 130.535156 84.890625 130.355469 C 83.125 129.625 81.363281 128.898438 79.597656 128.167969 C 78.617188 127.058594 77.953125 125.738281 77.691406 124.273438 C 77.421875 122.777344 77.5625 121.253906 77.933594 119.785156 C 78.464844 117.96875 79.46875 116.179688 81.121094 115.167969 C 81.449219 114.96875 81.796875 114.84375 82.15625 114.71875 C 82.546875 114.628906 82.9375 114.566406 83.339844 114.554688 C 83.847656 114.582031 84.324219 114.644531 84.820312 114.757812 C 85.503906 114.953125 86.136719 115.234375 86.757812 115.578125 C 86.851562 115.636719 86.941406 115.695312 87.03125 115.75 C 86.90625 115.828125 86.78125 115.910156 86.65625 115.988281 C 86.1875 116.296875 85.753906 116.652344 85.386719 117.082031 C 84.546875 118.0625 84.054688 119.429688 84.296875 120.722656 Z M 60.042969 144.402344 C 59.867188 143.230469 59.734375 142.148438 59.597656 140.914062 C 59.164062 136.910156 58.941406 132.882812 58.863281 128.859375 C 58.851562 128.296875 58.84375 127.734375 58.84375 127.171875 C 59.460938 127.195312 60.082031 127.222656 60.699219 127.246094 C 62.835938 127.335938 64.96875 127.421875 67.105469 127.511719 C 67.246094 127.515625 67.386719 127.523438 67.53125 127.527344 C 68.582031 127.542969 69.511719 126.78125 69.664062 125.734375 C 69.6875 125.554688 69.695312 125.378906 69.703125 125.203125 C 69.714844 124.90625 69.726562 124.613281 69.738281 124.320312 C 70.492188 124.449219 71.25 124.554688 72.007812 124.660156 C 73.605469 124.878906 75.203125 125.066406 76.804688 125.230469 C 76.972656 125.859375 77.203125 126.476562 77.507812 127.058594 C 77.8125 127.644531 78.191406 128.222656 78.632812 128.71875 C 77.042969 132.300781 75.457031 135.878906 73.871094 139.457031 C 72.222656 143.171875 70.578125 146.882812 68.929688 150.597656 C 68.546875 151.460938 68.101562 152.316406 67.773438 153.203125 C 67.773438 153.203125 67.773438 153.207031 67.773438 153.207031 C 67.628906 153.265625 67.484375 153.328125 67.339844 153.390625 C 67.144531 153.480469 66.953125 153.578125 66.761719 153.675781 C 65.964844 153.671875 65.164062 153.699219 64.367188 153.734375 C 63.648438 153.769531 62.957031 153.808594 62.292969 153.652344 C 62.257812 153.554688 62.21875 153.460938 62.183594 153.367188 C 62.089844 153.121094 62 152.875 61.914062 152.625 C 61.746094 152.144531 61.59375 151.660156 61.453125 151.167969 C 61.144531 150.097656 60.882812 149.007812 60.660156 147.910156 C 60.421875 146.746094 60.21875 145.578125 60.042969 144.402344 Z M 68.710938 111.679688 C 68.675781 111.636719 68.777344 111.789062 68.804688 111.839844 C 68.804688 111.84375 68.808594 111.851562 68.8125 111.863281 C 68.832031 111.917969 68.847656 111.976562 68.855469 112.035156 C 68.851562 112.027344 68.855469 112.15625 68.855469 112.183594 C 68.855469 112.199219 68.855469 112.214844 68.855469 112.230469 C 68.851562 112.292969 68.847656 112.359375 68.847656 112.425781 C 68.820312 113.089844 68.792969 113.757812 68.765625 114.421875 C 68.671875 116.671875 68.578125 118.921875 68.484375 121.171875 C 68.425781 122.601562 68.386719 124.035156 68.308594 125.464844 C 68.289062 125.855469 67.953125 126.148438 67.53125 126.144531 C 65.929688 126.078125 64.328125 126.011719 62.722656 125.945312 C 61.640625 125.902344 60.558594 125.859375 59.476562 125.8125 C 59.140625 125.800781 58.800781 125.785156 58.464844 125.769531 C 58.378906 125.769531 58.292969 125.765625 58.207031 125.761719 C 58.082031 125.753906 58.078125 125.757812 57.945312 125.714844 C 57.644531 125.609375 57.476562 125.300781 57.488281 124.929688 C 57.492188 124.753906 57.503906 124.578125 57.507812 124.40625 C 57.542969 123.609375 57.574219 122.8125 57.609375 122.011719 C 57.703125 119.730469 57.796875 117.449219 57.890625 115.167969 C 57.925781 114.296875 57.960938 113.425781 57.996094 112.558594 C 58.007812 112.320312 58.019531 112.082031 58.027344 111.84375 C 58.027344 111.792969 58.03125 111.746094 58.035156 111.695312 C 58.035156 111.6875 58.035156 111.683594 58.035156 111.675781 C 58.042969 111.578125 58.035156 111.625 58.066406 111.511719 C 58.074219 111.484375 58.078125 111.476562 58.078125 111.472656 C 58.078125 111.46875 58.082031 111.464844 58.082031 111.460938 C 58.105469 111.40625 58.140625 111.347656 58.175781 111.296875 C 58.304688 111.117188 58.542969 111.007812 58.8125 111.011719 C 58.851562 111.011719 58.890625 111.015625 58.925781 111.015625 C 59.042969 111.019531 59.160156 111.027344 59.277344 111.03125 C 59.421875 111.039062 59.570312 111.042969 59.714844 111.050781 C 60.730469 111.089844 61.746094 111.132812 62.757812 111.175781 C 64.554688 111.25 66.347656 111.308594 68.140625 111.398438 C 68.261719 111.402344 68.289062 111.402344 68.382812 111.4375 C 68.402344 111.441406 68.519531 111.503906 68.570312 111.539062 C 68.539062 111.519531 68.675781 111.636719 68.710938 111.679688 Z M 55.929688 144.71875 C 55.976562 144.777344 55.945312 144.742188 55.929688 144.71875 Z M 55.402344 142.96875 C 55 140.269531 55.179688 137.5625 55.9375 134.964844 C 56.09375 134.421875 56.277344 133.890625 56.480469 133.363281 C 56.527344 133.238281 56.578125 133.109375 56.632812 132.984375 C 56.636719 132.96875 56.640625 132.960938 56.644531 132.953125 C 56.648438 132.945312 56.652344 132.9375 56.65625 132.925781 C 56.683594 132.859375 56.710938 132.796875 56.738281 132.734375 C 56.835938 132.515625 56.933594 132.300781 57.039062 132.089844 C 57.195312 131.765625 57.363281 131.449219 57.539062 131.136719 C 57.570312 131.914062 57.601562 132.691406 57.640625 133.46875 C 57.875 138.167969 58.289062 142.882812 59.171875 147.507812 C 59.496094 149.203125 59.890625 150.886719 60.429688 152.527344 C 59.304688 151.453125 58.5 149.976562 58.105469 148.515625 C 57.871094 147.65625 57.839844 146.792969 57.722656 145.910156 C 57.605469 145.003906 57.359375 144.054688 56.601562 143.464844 C 56.25 143.1875 55.835938 143.03125 55.402344 142.96875 Z M 128.640625 144.375 C 128.109375 146.613281 127.605469 148.859375 127.160156 151.121094 C 127.128906 151.132812 127.109375 151.140625 127.109375 151.140625 C 127.019531 151.179688 126.929688 151.214844 126.839844 151.25 C 126.027344 151.566406 125.1875 151.804688 124.332031 151.988281 C 123.996094 152.058594 123.65625 152.117188 123.3125 152.167969 C 123.199219 151.988281 123.070312 151.824219 122.917969 151.675781 C 122.089844 150.882812 121.03125 151.3125 120.050781 151.476562 C 119.175781 151.625 118.285156 151.679688 117.398438 151.699219 C 113.699219 151.773438 109.941406 151.089844 106.285156 151.921875 C 105.832031 152.023438 105.386719 152.15625 104.953125 152.3125 C 105.097656 150.652344 104.726562 148.964844 103.875 147.527344 C 104.191406 147.296875 104.511719 147.066406 104.828125 146.835938 C 105.863281 146.085938 106.734375 145.027344 106.699219 143.675781 C 106.691406 143.375 106.628906 143.101562 106.527344 142.847656 C 106.515625 142.773438 106.488281 142.710938 106.449219 142.660156 C 106.304688 142.355469 106.113281 142.070312 105.902344 141.78125 C 105.832031 141.683594 105.765625 141.589844 105.695312 141.496094 C 106.109375 141.199219 106.519531 140.902344 106.929688 140.601562 C 107.21875 140.582031 107.507812 140.566406 107.796875 140.558594 C 108.304688 140.550781 108.8125 140.589844 109.316406 140.585938 C 109.925781 140.582031 110.535156 140.511719 111.132812 140.386719 C 112.261719 140.152344 113.34375 139.722656 114.320312 139.109375 C 116.101562 137.984375 117.601562 136.261719 118.453125 134.328125 C 118.8125 133.511719 119.023438 132.664062 119.089844 131.808594 C 119.46875 131.535156 119.851562 131.257812 120.234375 130.984375 C 120.871094 130.519531 121.511719 130.054688 122.152344 129.59375 C 122.316406 130.566406 122.574219 131.527344 122.863281 132.460938 C 123.585938 134.816406 124.613281 137.128906 126.082031 139.117188 C 126.960938 140.308594 127.976562 141.371094 129.160156 142.25 C 128.984375 142.957031 128.808594 143.664062 128.640625 144.375 Z M 133.867188 141.648438 C 133.859375 141.6875 133.855469 141.726562 133.847656 141.765625 C 133.832031 141.867188 133.820312 141.972656 133.800781 142.074219 C 133.695312 142.742188 133.550781 143.402344 133.359375 144.050781 C 133.261719 144.378906 133.15625 144.703125 133.035156 145.019531 C 132.984375 145.164062 132.925781 145.304688 132.867188 145.449219 C 132.855469 145.480469 132.824219 145.550781 132.808594 145.582031 C 132.773438 145.667969 132.734375 145.75 132.695312 145.835938 C 132.40625 146.445312 132.070312 147.03125 131.679688 147.582031 C 131.632812 147.644531 131.589844 147.707031 131.542969 147.769531 C 131.527344 147.789062 131.464844 147.867188 131.441406 147.898438 C 131.34375 148.023438 131.246094 148.144531 131.140625 148.265625 C 130.921875 148.519531 130.6875 148.765625 130.441406 149 C 130.199219 149.230469 129.941406 149.449219 129.675781 149.660156 C 129.644531 149.683594 129.542969 149.761719 129.519531 149.777344 C 129.445312 149.832031 129.371094 149.886719 129.296875 149.9375 C 129.144531 150.042969 128.992188 150.144531 128.835938 150.246094 C 128.800781 150.265625 128.765625 150.285156 128.734375 150.304688 C 129.464844 146.761719 130.3125 143.242188 131.21875 139.742188 C 131.875 137.195312 132.566406 134.660156 133.289062 132.132812 C 133.40625 132.707031 133.515625 133.285156 133.613281 133.863281 C 133.667969 134.203125 133.71875 134.546875 133.765625 134.886719 C 133.769531 134.929688 133.777344 134.996094 133.78125 135.023438 C 133.792969 135.105469 133.804688 135.1875 133.8125 135.265625 C 133.835938 135.453125 133.855469 135.640625 133.875 135.828125 C 134.023438 137.246094 134.078125 138.679688 134.003906 140.105469 C 133.984375 140.460938 133.957031 140.8125 133.921875 141.164062 C 133.90625 141.324219 133.886719 141.484375 133.867188 141.640625 C 133.863281 141.648438 133.863281 141.664062 133.859375 141.679688 C 133.863281 141.667969 133.863281 141.660156 133.867188 141.648438 Z M 124.574219 78.25 C 125.0625 78.390625 125.554688 78.488281 126.0625 78.554688 C 126.050781 78.554688 126.054688 78.554688 126.09375 78.5625 C 126.136719 78.566406 126.179688 78.574219 126.222656 78.578125 C 126.324219 78.59375 126.425781 78.609375 126.527344 78.625 C 128.617188 78.949219 130.691406 79.476562 132.703125 80.171875 C 132.644531 80.238281 132.589844 80.300781 132.535156 80.367188 C 131.652344 81.378906 130.855469 82.46875 130.109375 83.585938 C 128.917969 85.371094 127.867188 87.25 126.914062 89.175781 C 125.550781 91.933594 124.386719 94.792969 123.375 97.699219 C 122.054688 101.5 121 105.386719 120.140625 109.3125 C 120.019531 109.851562 119.910156 110.390625 119.796875 110.925781 C 119.703125 110.925781 119.613281 110.921875 119.519531 110.914062 C 118.558594 110.875 117.597656 110.835938 116.640625 110.796875 C 115.089844 110.734375 113.535156 110.667969 111.984375 110.605469 C 112.5 107.515625 113.253906 104.472656 114.171875 101.480469 C 115.101562 98.453125 116.199219 95.480469 117.414062 92.554688 C 118.453125 90.0625 119.589844 87.601562 120.796875 85.183594 C 121.671875 83.4375 122.585938 81.707031 123.542969 80.003906 C 123.875 79.414062 124.234375 78.835938 124.574219 78.25 Z M 156.351562 119.929688 C 155.804688 115.023438 155.109375 110.125 154.230469 105.265625 C 153.617188 101.855469 152.980469 98.445312 151.621094 95.242188 C 149.375 89.960938 145.515625 85.574219 140.695312 82.492188 C 137.210938 80.261719 133.289062 78.683594 129.265625 77.753906 C 128.1875 77.503906 127.109375 77.324219 126.015625 77.167969 C 123.382812 76.789062 120.976562 75.097656 119.464844 72.949219 C 117.109375 69.601562 116.339844 65.253906 116.394531 61.230469 C 116.398438 61.042969 116.402344 60.855469 116.414062 60.667969 C 117.421875 59.15625 118.222656 57.507812 118.785156 55.777344 C 119.246094 54.347656 119.613281 52.882812 119.921875 51.40625 C 121.328125 51.566406 122.644531 51.082031 123.726562 50.171875 C 124.847656 49.226562 125.53125 47.859375 125.886719 46.453125 C 126.253906 44.980469 126.390625 43.351562 126.285156 41.839844 C 126.179688 40.382812 125.652344 38.875 124.355469 38.066406 C 123.5625 37.574219 122.371094 37.460938 121.421875 37.808594 C 121.425781 37.703125 121.429688 37.601562 121.429688 37.5 C 121.445312 36.601562 121.445312 35.707031 121.433594 34.808594 C 121.625 34.625 121.804688 34.433594 121.972656 34.226562 C 122.632812 33.421875 123.09375 32.519531 123.414062 31.535156 C 125.699219 28.019531 126.457031 23.667969 125.585938 19.574219 C 124.816406 15.96875 122.777344 12.65625 119.976562 10.273438 C 116.890625 7.648438 112.980469 6.296875 109.058594 5.492188 C 108.238281 5.320312 107.414062 5.179688 106.585938 5.058594 C 105.886719 3.472656 104.300781 2.386719 102.601562 2.183594 C 100.820312 1.972656 99.039062 2.847656 98.027344 4.304688 C 97.980469 4.371094 97.957031 4.449219 97.941406 4.523438 C 96.167969 4.554688 94.382812 4.640625 92.621094 4.867188 C 92.582031 4.871094 92.542969 4.878906 92.503906 4.882812 C 92.472656 4.910156 92.171875 4.917969 92.136719 4.925781 C 91.691406 4.980469 91.242188 5.042969 90.800781 5.125 C 90.070312 5.253906 89.34375 5.429688 88.636719 5.65625 C 87.332031 6.066406 86.070312 6.636719 84.929688 7.386719 C 82.945312 8.699219 81.355469 10.519531 80.28125 12.636719 C 79.3125 14.546875 78.738281 16.628906 78.449219 18.746094 C 78.207031 20.535156 78.144531 22.34375 78.253906 24.144531 C 78.304688 25.066406 78.398438 25.992188 78.550781 26.902344 C 78.445312 27.054688 78.34375 27.210938 78.246094 27.371094 C 77.789062 28.121094 77.414062 28.929688 77.132812 29.761719 C 76.773438 30.832031 76.582031 31.992188 76.679688 33.121094 C 76.78125 34.246094 77.355469 35.253906 78.367188 35.796875 C 78.851562 36.058594 79.394531 36.203125 79.941406 36.210938 C 79.914062 36.738281 79.898438 37.261719 79.886719 37.785156 C 79.160156 37.554688 78.316406 37.5625 77.675781 37.792969 C 76.285156 38.289062 75.457031 39.675781 75.203125 41.070312 C 74.917969 42.609375 74.992188 44.277344 75.226562 45.816406 C 75.453125 47.285156 75.996094 48.722656 77.011719 49.824219 C 77.984375 50.878906 79.398438 51.617188 80.851562 51.542969 C 81.253906 53.828125 81.820312 56.09375 82.742188 58.203125 C 83.832031 60.695312 85.496094 62.90625 87.546875 64.679688 C 87.546875 64.738281 87.546875 64.796875 87.546875 64.855469 C 87.542969 65.042969 87.53125 65.234375 87.515625 65.421875 C 87.507812 65.53125 87.492188 65.640625 87.484375 65.75 C 87.480469 65.765625 87.480469 65.773438 87.480469 65.785156 C 87.476562 65.789062 87.476562 65.792969 87.476562 65.796875 C 87.464844 65.871094 87.453125 65.945312 87.441406 66.019531 C 87.199219 67.484375 86.746094 68.648438 85.957031 69.855469 C 83.355469 73.828125 78.300781 75.089844 73.78125 75.449219 C 69.820312 75.761719 65.855469 76.542969 62.09375 77.824219 C 56.925781 79.589844 51.769531 82.476562 48.714844 87.148438 C 47.988281 88.253906 47.363281 89.4375 46.722656 90.589844 C 45.089844 93.519531 43.542969 96.503906 42.074219 99.519531 C 40.039062 103.707031 38.15625 107.972656 36.464844 112.3125 C 34.597656 117.117188 32.964844 122.027344 31.738281 127.035156 C 30.535156 131.949219 29.699219 136.996094 29.628906 142.0625 C 29.5625 146.640625 30.144531 151.308594 31.921875 155.554688 C 32.332031 156.539062 32.800781 157.496094 33.335938 158.417969 C 33.332031 158.429688 33.328125 158.441406 33.324219 158.449219 C 32.894531 159.589844 33.378906 160.648438 34.0625 161.558594 C 35.386719 163.320312 36.972656 164.851562 38.78125 166.113281 C 41.933594 168.308594 45.976562 169.554688 48.332031 172.753906 C 49.609375 174.488281 50.390625 176.511719 51.566406 178.308594 C 52.6875 180.015625 54.175781 181.558594 56.1875 182.144531 C 57.292969 182.46875 58.472656 182.503906 59.613281 182.421875 C 60.753906 182.34375 61.886719 182.152344 62.988281 181.847656 C 65.195312 181.234375 67.214844 180.164062 69.035156 178.78125 C 70.941406 177.332031 72.707031 175.691406 74.507812 174.113281 C 74.96875 173.714844 75.445312 173.292969 75.757812 172.796875 C 76.144531 172.476562 76.835938 171.910156 76.855469 171.890625 C 77.785156 170.851562 78.707031 169.8125 79.625 168.765625 C 80.460938 167.925781 81.277344 167.089844 81.996094 166.308594 C 82.261719 166.523438 82.535156 166.730469 82.808594 166.933594 C 84.371094 168.089844 85.976562 169.257812 87.820312 169.925781 C 89.617188 170.578125 91.5625 170.722656 93.460938 170.765625 C 95.347656 170.808594 97.257812 170.734375 99.132812 170.996094 C 100.96875 171.25 102.671875 171.921875 104.328125 172.734375 C 106.046875 173.574219 107.730469 174.5 109.542969 175.148438 C 111.4375 175.824219 113.449219 176.195312 115.460938 176.273438 C 116.445312 176.3125 117.4375 176.277344 118.414062 176.164062 C 119.40625 176.046875 120.371094 175.886719 120.933594 174.964844 C 121.097656 174.699219 121.214844 174.40625 121.304688 174.101562 C 128.519531 175.007812 136.058594 175.199219 143.132812 173.3125 C 145.207031 172.757812 147.25 172.003906 149.144531 170.988281 C 150.714844 170.148438 152.054688 168.988281 153.085938 167.53125 C 154.179688 165.976562 154.699219 164.191406 155.15625 162.371094 C 156.921875 155.367188 157.46875 148.070312 157.523438 140.863281 C 157.578125 133.871094 157.121094 126.878906 156.351562 119.929688 " fill-opacity="1" fill-rule="nonzero"/></g><path fill="#330b24" d="M 130.390625 122.78125 C 130.378906 122.753906 130.367188 122.730469 130.355469 122.703125 C 130.363281 122.710938 130.375 122.742188 130.394531 122.789062 C 130.394531 122.785156 130.390625 122.785156 130.390625 122.78125 " fill-opacity="1" fill-rule="nonzero"/><path fill="#330b24" d="M 133.859375 141.679688 C 133.84375 141.792969 133.855469 141.730469 133.859375 141.679688 " fill-opacity="1" fill-rule="nonzero"/><path fill="#330b24" d="M 92.40625 4.898438 C 92.4375 4.894531 92.472656 4.886719 92.503906 4.882812 C 92.503906 4.882812 92.511719 4.882812 92.511719 4.882812 C 92.511719 4.878906 92.386719 4.898438 92.40625 4.898438 " fill-opacity="1" fill-rule="nonzero"/><path fill="#330b24" d="M 98.3125 50.890625 C 99.308594 51.484375 100.535156 51.558594 101.644531 51.285156 C 102.046875 51.183594 102.273438 50.722656 102.160156 50.34375 C 102.039062 49.941406 101.605469 49.734375 101.203125 49.835938 C 100.269531 50.066406 99.222656 49.882812 98.589844 49.179688 C 98.113281 48.648438 97.972656 47.917969 98.269531 47.273438 C 98.683594 46.378906 99.488281 45.699219 100.027344 44.875 C 101.160156 43.140625 101.515625 41.023438 101.148438 39.011719 C 101.078125 38.609375 100.554688 38.398438 100.195312 38.503906 C 99.765625 38.628906 99.605469 39.042969 99.675781 39.445312 C 99.878906 40.5625 99.742188 41.726562 99.367188 42.792969 C 99.023438 43.761719 98.402344 44.523438 97.761719 45.3125 C 97.054688 46.1875 96.433594 47.195312 96.601562 48.359375 C 96.753906 49.414062 97.382812 50.339844 98.3125 50.890625 " fill-opacity="1" fill-rule="nonzero"/><path fill="#330b24" d="M 109.125 42.539062 C 109.972656 42.496094 110.601562 41.390625 110.53125 40.070312 C 110.457031 38.75 109.710938 37.71875 108.863281 37.761719 C 108.015625 37.808594 107.386719 38.914062 107.460938 40.234375 C 107.53125 41.550781 108.277344 42.585938 109.125 42.539062 " fill-opacity="1" fill-rule="nonzero"/><path fill="#330b24" d="M 92.285156 42.414062 C 93.132812 42.367188 93.761719 41.261719 93.6875 39.941406 C 93.617188 38.621094 92.871094 37.589844 92.023438 37.632812 C 91.175781 37.679688 90.546875 38.785156 90.617188 40.105469 C 90.691406 41.425781 91.4375 42.457031 92.285156 42.414062 " fill-opacity="1" fill-rule="nonzero"/><path fill="#330b24" d="M 93.359375 54.746094 C 93.15625 55.097656 93.308594 55.46875 93.609375 55.691406 C 96.460938 57.820312 100.296875 58.429688 103.671875 57.292969 C 104.636719 56.964844 105.5625 56.511719 106.40625 55.933594 C 106.710938 55.726562 106.851562 55.328125 106.652344 54.988281 C 106.472656 54.683594 106.015625 54.527344 105.707031 54.742188 C 104.003906 55.90625 101.984375 56.53125 99.917969 56.480469 C 97.886719 56.425781 95.929688 55.707031 94.304688 54.496094 C 94.007812 54.273438 93.535156 54.445312 93.359375 54.746094 " fill-opacity="1" fill-rule="nonzero"/></svg>